<mxfile host="Electron" agent="Mozilla/5.0 (Windows NT 10.0; Win64; x64) AppleWebKit/537.36 (KHTML, like Gecko) draw.io/26.0.4 Chrome/128.0.6613.186 Electron/32.2.5 Safari/537.36" version="26.0.4">
  <diagram name="Page-1" id="zoYZXqN1iEVXM0R22iAL">
    <mxGraphModel dx="1436" dy="1007" grid="0" gridSize="10" guides="1" tooltips="1" connect="1" arrows="1" fold="1" page="0" pageScale="1" pageWidth="2336" pageHeight="1654" math="0" shadow="0">
      <root>
        <mxCell id="0" />
        <mxCell id="1" parent="0" />
        <mxCell id="j-bRBase9HprXpClxs5v-7" value="" style="shape=stencil(lVbbchsxCP2afWUkkAR6TtP/yEyc2lPXzjju7e/Ldkcbi5Vp87aROQEOh8tED2/7p9fdhOHtejl/3f08PF/3E32aEA+n/e5yuOrXRI8TPbycL7svl/P30/Py9+vTbDl/fTv/mP/DrwWHBQhnFIbfywtBor8Pnxf74+F0Y58i1NjZRwFK9wE5QebeAQGH+4CSgKgDpALI9wGMEHMHyAWi40EiSJ9DER9QQaQDcIGE9wG1AtUOUANkh6UYAoTQI7AxPXYhUI2LDFgcgIZcegC32o8BCMV4EJDq0CQQjIfamB4DCAJbQPVKLYBkAeQkzQlCtjkEpxAcWgArQMXkeCgaQC+mSlA9fVfA1AMiZIclDYl79ake0elR1gbr6yDcghwDGMQAMlSHJVFpsAV4PaoBbAHkAFR81BdOipu0lgmDTZqz20CSLK3syHvWZl8HDTL6UyCbnk7tZQzgTYsWKOIA0qbjBJJXuGrrMAfpeJAE3LN0M6rGYlpZvHFRvJbLduBrEtmpHOv8zpYmcbShLWcnWXJ5/Tggbno0QnJYyrmt2XWlYJsL48W7crIurdBm239u6hwgOjkQ2sKRPyujTvdeTJjaKh4DWkOurEJ1+idAMpy6S3ezQVUUrjn1wtYJ5sxILac5Y1xBkNU0toexHOxFEl0xiFVbaINjHDu2Or7bByeauBGn3/J6ArK1J0cHsxCKSTc4y0BlZWrlD96PHrX/tteP9wv65XA8Lgf47e/24tan5Vqnxz8=);lineShape=1;strokeColor=default;" vertex="1" parent="1">
          <mxGeometry x="46.38960513621373" y="13.199044651504323" width="14.325390629071762" height="29.99004811863267" as="geometry" />
        </mxCell>
        <mxCell id="j-bRBase9HprXpClxs5v-8" value="" style="shape=stencil(lVbLbhsxDPyavQ5EUs9zmv5HgDj1oq4dOE4ff1+6W21N2SbS21qekcjhkNIkD2/bp9fNxOHtdDx83fyYn0/bST5NzPN+uznOJ/2a5HGSh5fDcfPleHjfPy+/X5/OyPPXt8P38w4/F15hRD6zOPxaVloGlT8rnxfCbt5fEGKCFEPQLSjfJ1BAzIYQCyrfJySkaPECEucAtGrwkpHSfXwAJYPnilI9PA/4gOzEz2CbLzGaE38a49fwne2JEGzFGMFJlzKq1TMgBCd8vsYnRx5VT5rVH8WJX1QNso4DkYNXfWy+5DtUCmgQKLoOVb8Mlpa1hrcJmqG1hDRkJwdNMVmCtlGMDkEjtqaIqpJDoAoWQ0gB4tmIIbYMsaI6spbushUfXVvzVVvWXvg7bTZIJITotvFfF69VFog7JgabUuortwddd33HV0RHnjbqL2Bnd4qoNl0dk15XBtQ84IOzvw6RbONhf//cZ9rH8Dl2s1yUKzsBNepuWQ2akJ250hLYRpSa2zOtjF2pQZLjoNYgw+Rt7s1B4cp0Jbldpkck67pKfTrdJtQ+21ZCdm8blakO45SQnMo1RrYn6BbRKUStVwO7uknXiDKc0LrbbxNCb621N4N/SZUMLmNMxTniv985HyDox79n1cu82y2vssv/x2eYLi1POHn8DQ==);lineShape=1;strokeColor=default;" vertex="1" parent="1">
          <mxGeometry x="40.91914297304061" y="0.2149330952507853" width="11.050638691672475" height="8.146388405085418" as="geometry" />
        </mxCell>
        <mxCell id="j-bRBase9HprXpClxs5v-9" value="" style="shape=stencil(lVjZbttADPwavxLLvfWcpv8RIE5t1I0DJ73+viMI62q51iR588HR8hgOudqFu9fDw8t+593r2+X8ff/7+Ph22IUvO++Pz4f95fiGT7twvwt3T+fL/tvl/PP5cfn+8jBbzp9+nH/NT/iz4KIUN4O8+7v84MQtP3xdzE/H55W5JlE19r5s2/sgNRj7OG3bB5VYjH1RYl+kVmM/+W37GGTKnb1KiNv2Cfaxs/ctATftMx7X5zOIT8R+svFGicT/klv6VvZh275Gqf3zJ1ESb83iUp8fPOEdQF9gZJRVrCaJfcXg0kQoB4BxCUWfeMymxhEsJySdT+hjSE4SOyG1Il0BSQIDZCm9Sxm8IH1QJ3tCQSMQIk1BXJ/WUiQxQBHtT6jo1Uxa312l4YqorZa3j6iSe8AE+SBpQhCG3bOXLE1evLcAVuq5f0YAOSFn8cECWEOkKr4vNdKghN9JJRnAJJlULuJvo2GOq3YsVuVxRCVRx9RacgVgBI9XGVpFHQg3IMQx27wyZYoDwUGmwlwKzeMrIEogyoQY1LAPZ7JhkiQZcfXv1SEY9mFekJ5DqS2ZVJQAQCatFsAGSvKNCKsYlAGieLVZUlJpSKORDdSB7QAAqElrokMdLhXjUqGVxlTPQ48ywUeWtF8D0A9s7mKABLUANrQi2iUNANZA2W4OACQifXFcBaoU3nFl0MrEe1pNx+VGlk2AYStKyU+opg6B1gEt6kylPReBPEilUmp8GoAVsfbUwLD3RDWKiosDgO1kansaACUTpQ6DGgC2PGAByj2XsHQ5BoAK9fTGJGZDrmBA9S4VL5lQo1Qr9xnbCak09iMLiHQ7gcelZ2uaWkttAcxkh7QlonzzdjIuoqTSM6B3aV51+Qkm6HmZZjEkG/S8rrMTsH33lcaViU1RLLZT75L61iG3Gyi2K+cKwE5A1u0eyqW12p2vtnmxdQn1fb/x1TsMDc1XH9whzZ6RpZJ4x0t6pv4P7wAyHVW3vCHmXpJ9OpPHYRvOTcFvmjsrE4nOA2epEyUTMg83ntBeN3zUnIni4Iynsj6Eqi2zH0uko2I1lMlJJE8fSODoJeeTr5neNceH/2+0no6n0/JCbP2/fQOGn5a3Z+H+Hw==);lineShape=1;strokeColor=default;" vertex="1" parent="1">
          <mxGeometry x="39.123438254097664" y="-0.4918386351484969" width="44.18888256152832" height="60.39251051724648" as="geometry" />
        </mxCell>
        <mxCell id="j-bRBase9HprXpClxs5v-10" value="" style="shape=stencil(7VjLbhsxDPwaXwmJ1POctv8RIE5jNI0DJ339fakaspdce4KcegmQw2atWYnkcEhqIzcvD7fP2w2Hl9fD/tv21+7u9WEjnzbMu6eH7WH3qk8b+byRm/v9Yfv1sP/xdHf8//l2rBxP3/c/xxd+H3ESSSHjL/w5vklCqfx78+UIeNw9LQGJajaAHCklAGjUowU0qmCHxNSDAZREjQGgUOkGUAOFdh2Qgze6Zqpgh8zzABPQIkkFgETdHqmdDnkZUPyReqQSAKCS2B16poaMLtSbBRRqIA45U3Y7VKpoByGxke5tfuJqHKoFdOKMI509oArk0hrQgQ3K1mxtiEHJBAKhCZFWRlRgtQSqK4AAq7lSWfkV0ZUzxVXkOnATC5XkAQHtIBScXwsFQCZmipZ9rVIEsqEAl0G14R30SBZQ1GhkA1O1OqM5VVEceObLSSsbDhz7lJNOGRktxNYGUb8ho5Pnt8a+Yy45fnOAOiOFshWmyDCDUqZijdYwAKlUrW6We5EiOJBKdbJRCCTARW31fZzPKtSJ/Xpw/qHTfn0GERgy3Z29CZxn5Lr1J1MGubzQqxOJYPlU9UmuQFMEGwxpsAcqJGi9TE0/E4IBgZomlavOs4O4vF7T0p6/UQT21uqTDH+/8kzy83oBASuNUvf+AYQoZbp74X+0PvsUlsnwa993OseQoEU1yiZYnBlx2T/i/a8JgBK+e37ibq0lys2vRwncp94sBAIlZJoCeLY3gPo9aml3/oT5cmoHzvESYK+ud/5MM4DXBCJYgcMlYNhr/VOhP9+7Xut0d4IeZkZcJpy29y4AqvHAo9pdB8tQDVlBfWP3O2hOoqFFG81ud9BCjJI+nQaIZalHgDJJsGgmGI1F1dug7QpqJrS7Tm6OqpBIo3+3gVOpRJVDR4pivdTeGCk+hpapCP9/aGmrM30MLet23HkpzruJqw2/LeU65QjoLc6l9QRgWAxj9+14xRcLccW+GmG5iuIveLThaMAGVXdx/UuHc1T2IpAZUin4+pYSLA+r/jcJFEodECy1RwIiWvh+IcX5hSv2un5Z10cQsuZH5RTmSHU5AJFq9ADk0FFeqwcw8JCyjtNqBzy9u2I1bECA7JuG4SSkL80r2IgCoKkqmEvmxHjyfffV6NsAfTjfxN7vHh+PF7nL3/3Nrb463vrK578=);lineShape=1;strokeColor=default;" vertex="1" parent="1">
          <mxGeometry x="100.7747172744896" y="-4.147352373676995" width="12.957924484517207" height="54.94855014258792" as="geometry" />
        </mxCell>
        <mxCell id="j-bRBase9HprXpClxs5v-11" value="" style="shape=stencil(lVbLctswDPwaXTEkQZDgOY//yEycWlPXzjhO2v59oVGlGoy8ndxkGktiF8CSA9+97Z9ed0MKb5fz6fvu5/h82Q98P6Q0Hve783ixr4EfBr57OZ13386n9+Pz/Pv1aYqcvn6cPqYdfs04bqQ6oVL4Pa/UZeFxjj+Mx6v4kqlkF8+FON8GtEjZHyCVWgSA0gMKU0WARtw8hUDKEKAdQEnQCZaxOIDKsrINsIyLA7REXG8DtH4CVIogJQ0kXiVjVcptQE3Uag+ogEMRqqlP6a/QmwCxBGJPWgEHEUqetFrt0QlMkX3hGsUAAdkXrlo7opQKxa75MqUEVIoUfEqilACHUkmCB9gJYIBqpubrIGnZYrs10iLiCmBKYB60UfYzbTIwMIEmPWmToYCUmlLpZFVi0K0xBApepmojh3xGSbtmYhI0o7JwXNs1wP42mbpC2BYVkLAEgu8+G7kAXMAodr1xpcN2NykFXzrTIQOZyic7bhnKtA0ArFNb9ltrXaDhSz+jXBfn2T6Asi8Dmy2AeHNKb3x2xTUY33XedCIYn7DY6Fq0Ai+HRNXnEyMpyEf6y8dsGITHsFjiqg+UM5q/+AJH6BbGl/3+uEUt/46vxYMx49hPTYR2x0Lq4zNFIP9XXzz/j7ePf8+rl/FwmF9n1//3zzFbmp9y/PAH);lineShape=1;strokeColor=default;" vertex="1" parent="1">
          <mxGeometry x="98.47959258757714" y="14.889787741726309" width="8.47299613454311" height="8.377820440058372" as="geometry" />
        </mxCell>
        <mxCell id="j-bRBase9HprXpClxs5v-12" value="" style="shape=stencil(lVbLbhsxDPyavQ4kUc9zmv5HgDi1UdcOHLdN/r7cLrSNJHvs3rQrjkgOh5QmeXjbPr1uJmfezqfj983v3fN5O8mXybndYbs57c66muRxkoeX42nz7XT8eXhevl+fZst59eP4az7hfcHZhOBmlDMfyx8H7//++LrY73eHT/Y+webO3tjr9tnCt/YGxhD7BG+686O7bl8cUmtvDRxxUCKytA4sCsm4FEhoABIR5TrAmjXFiggaJSGp5LpdATEjMEBAbAHZQRIBWBjfAJS4TLLOAT62gFyJuwhIBT61gEKTToJYWkCA5OsA5SS1Us0RQkodA0zrQX16ElIU2DaHkGFYSAPAq5j+KyQXEUjhxqTtytudtHraQGPdtH/I+bMwWntbObhTeTpBIpd2l3BCZP05NI9YBFKDC/2pU01Yuw0jQAsvhKRxyCQVEmNpGGO5ILO5mmoAa/ckGtI8iLu6mRujeBjdtxDj5aBBFRLUePsoIBB1qPhdl3asPi8TC+kcOFjCa0DuZozqkaTsan5roRMMaTdbd1clqVRIwuNVEpDIGB6l7eEYoX08oiONnC/9+TMDhP+BT+vrBX9fvRIyOV71IG08Uh3eKTj+3Lltr4t/b6uX3X6/PM0+7/dvMf21vOPk8Q8=);lineShape=1;strokeColor=default;" vertex="1" parent="1">
          <mxGeometry x="122.43028924117448" y="25.114167380511162" width="11.24445981061558" height="4.1717506881964255" as="geometry" />
        </mxCell>
        <mxCell id="j-bRBase9HprXpClxs5v-13" value="" style="shape=stencil(lVbLbhsxDPyavRKUKErUOU3/I0Cc2qhrB47Tx9+X28WiFu2O05ssa5bkcPiY5OFt+/S6mTK/nU/Hr5sfu+fzdpJPU867w3Zz2p39NMnjJA8vx9Pmy+n4fnhefr8+zS/n07fj9/kLPxdcbaR9RmX+tdw0SuXPxefl/X53uHyvVG14nxMVhYDOA0AyKQLU9XsroOTV5m1AI6kDQBNlEENLlEaXaiHLAGCUAklKSf4N6EbcBoB1CEjMxKNPPVHrwEQjG2nqhQryKZGVEVChBXPa0wgwqogm5zUAOjXgkhppi4AOXCqVskWAAIAoqYyABi24/IP6ugsYBJ0z2aiNLlQwQIJLTA3INSvZSKu5HisIOlMfWTKPAZRcEeIxBiskwCVV4mBBSBOs0dqvAKhGO1WOLiFavcCClqwSA5Zc/aqRVmEA6DEPnjhDJdqJA0BWJ28Dytq3LkqUQeLmvIZ6sDUzt2n1vpVjAcH2namNFi5a1W1tMGWNJlD/FiOrMQgFbSP3tW9d0FQBr1muaHKmUReQtUl8EFCIx5puPkYBrRzTMM9VEAFHYdwZcWkd4h+coSmW550hnaiPyr6zBVxNN7xlcMyXwtoXsrH0/QIo1NU1OuMdGXCfSmxFzj1q8Cn2CcYDweWcw3tUYNJiuPh90VjC2B+VmCwcr/Y4PTCfVWK8OF2+EIY9BKvhv1fau+/98Hd/ftnt98v6ffl/3Lf9atnV5fE3);lineShape=1;strokeColor=default;" vertex="1" parent="1">
          <mxGeometry x="131.05947943651086" y="13.075104942000166" width="6.333771300758144" height="29.74931432869778" as="geometry" />
        </mxCell>
        <mxCell id="j-bRBase9HprXpClxs5v-14" value="" style="shape=stencil(fZbdcgIhDIWfZm8zQAg/17Z9j85U606tdqz9e/tmZ0c0uJ47xP0I5JwEBl59bp8/1kNwn6fj4W39M76ctgM/DCGM++36OJ50NPDjwKvN4bh+PR6+9i/z74/n6ctp9H74nlb4nbmSKZeJCu5vngmZ6jzzNAO7cX8FVKEsBuBKrgKg9oAE8gkCbLeUhEoEQKSUDZDLeWYRKIl8MEDRmHwfyBrBG6Amyu4+kDxxMoB3jhwgYu7TVAsVkFcWCs4CTBEoF4RctKeOxHIf8IXYpikHikAIf+MNUW94AGSSaoAoFIE3AlOyeWU+p2E5S9yfQZcQILVuQOwZdJNoS9Ls3wA5u2XZTIHECqeJ9kDpSaauRiNVcAY1QhdBzeLBli5WazpkSsBLV25uRaqWRyFawTQzRRIQYirJzq5atkBqLfouwqUxLBepthWb10vrWZY6UOAeyKCCtDV625mm9gmUC4Wc3VLJMMIE1BsA2FW9JraVlQB7n3c9oMKhCLEvIM1zBPZ25/umNQ1tVEC2G+fFCC8g398O2hNQuQlVu752DBfA+q0ptnqO5JFmeuIuo9DY7KjY71UxdJV4EntifPWorW++R/dC4t7V3DlIB5cHx2bc7eb3yvX//QNFp+bHDT/+Aw==);lineShape=1;strokeColor=default;" vertex="1" parent="1">
          <mxGeometry x="125.46799746356942" y="-15.724663127418353" width="4.672539772115442" height="4.665236216357698" as="geometry" />
        </mxCell>
        <mxCell id="j-bRBase9HprXpClxs5v-15" value="" style="shape=stencil(lVfbcloxDPya86qRL7Ll5zT9j8yEFKYUMoS0zd9HlPqABSyTt4PRyrqu5Ck9vC2fXhdT5Lf9bvtz8Wf1vF9O6dsU42qzXOxWe/ua0uOUHl62u8WP3fZ983z8/fp0kDx8/dr+Pmj4e8SFSqEcUJE//p9QaP8Ovh/l16vNmXxK1NogX/vBVXlhanHUr6QAUDKJDIDEpHobUAuFPACy2RhuA1SojDdIgT60SIkHQKndq+uAQml0ulbKCQCUsg4AM5LBDYGZeLSpZWoVXNFI0ggoJBna5G8wrwsACEkdAY0YZM7i6rw2QAWJ0FnfXEynONzKdeWLKxAgXgAU5lqZcvBhqiDX1ZwQn4iIClypujBlKiBMdkNxJiUKAnwIlEcSaIEUOZ27vhnAGFApqQcgp0/6zgGoXM0k9gCUaYt6Y+90wU3qARHTQOs8dJa4jHxopA5QiLFJxUWpkgDuM30+01ZdoDSscsQBrLpQWC1N0QMQu2ohvWhRBTyjiUr2gAiiZOXtaMOcDoArrYFS83mod1rUmSQ9DF8AINZQT65GbYoAM1nPM0hhi1bpI2qecpY44LT9rSNAWp/d13eBWd88qW37ACZlG0FjHhIeiyn3yumAmCmC4ovcDZgniuD9h/JIfNqJ7fqc9tRt7QnsZ0/cNqJBr9nsG8UFGnOxMmRYo0zigt8Z9parY2QiHP4WyNGYQBEQl/i4c+el68Xc94iTeADEG4y0qpNHa0WI3tk7+sUXMsPd66tb+X15+zg9AV5W6/XxBXH+v38y2NHxuZEePwE=);lineShape=1;strokeColor=default;" vertex="1" parent="1">
          <mxGeometry x="141.03217928692084" y="2.2198886211133413" width="17.159784941867656" height="37.193464014820165" as="geometry" />
        </mxCell>
        <mxCell id="j-bRBase9HprXpClxs5v-16" value="" style="shape=stencil(lVjbcloxDPwaXjW25Otzmv5HZkIapmnIkKSXv++eUgMWsJm8gY9kW9JKWnllN6+Pdy/rlYbXt932+/rX5v7tcWVfVqqb58f1bvOGXyu7XdnNw3a3/rbbvj/f7/+/3C2Sy68f25/LDr/3elFKXpQ0/NkvpCa5/Vv5upd/2jyfyBcpZZbPEsJ1+WjS4qwQJdp1BTXRNClYk0ZOMJNk8wkqORKF6k9IRVq5rpCClDYpZJxQiUKS2GcF2MAU6rjAUChZml5XyFHSbENVCcStOUmts0KVQIzOXeKs0ExCJshIonMcWpNCroQbqzuhiBLs4cZxNrpFGjh81tmtFfgl0GhJynyl0qWRK8HEOMO7HM68qNCD2OwlhLISt3Z8dvDGCoFG15FfhwTCCj/BJRBykAWudbHZ6FgkdKJQRkIOhT4y6rK8SndVie+vUlzNkMhwoT4ZAEVSYoB809ngEcVrMNL5/oE7NEvy8pGUC/jzf0U8yrMivKD0bP/EA1ydPGsKC6i9f5TcH/I9Ov+zngCEhrkA21i4tr/zD/DDUib4LE7SuH/cfRBAFq86ivlRnu5fPB6ydBbf7FM+jzZ9Dc/d9Sfqf8i7wpvEeP6WeX/j/lFfdtFfSbyWTjTvH3lZN4+3wP2fRy89yiuvb5acPMMb8FD9fVgvRv66eAVJBA/Ac0jOP4H4B/K1OPnG8vGz8skzrsY7UvH5EjNtAB0OcgAySiV6lz6fgCapxEUxHErsCc2kRnTfBBbWyKhB9VS5oE8xq7Nv3Aul+oAazHFrgVJlADW7wFVqNBiX68TdKLRr9ifADay2g5ClOXJwNCsWcKJLzpNYXqa+8Otc3gFIVu9A4ZozIo4J4DLfPzDjE+rLhhxMFGXGBiJnpIQtU5ajvjyFMBW5maU0Sn2RMM0pKKW+SPrmEqJQuKIruTK5jD3kShp8qOFoJXCNyReyHCgz7X78xVwVWSeU3L18JZ2wegOARcZkiy9KkKew8LiDPKuTdjatpNGKLkfAow7ymT0PDN59kDc696LvdS/POls4I2pKs+CsyANxjCmHsxof6CQRzl5DOp0kPvs887E8fhzfgh42T0/7p6TT7/7tCEv7dye7/Qs=);lineShape=1;strokeColor=default;" vertex="1" parent="1">
          <mxGeometry x="161.41274747680723" y="-10.80124328279146" width="38.67927187407986" height="55.27780183838843" as="geometry" />
        </mxCell>
        <mxCell id="j-bRBase9HprXpClxs5v-17" value="" style="shape=stencil(lZfbbtswDIafxreERB153XXvUaDpEixrijTd4e1Hz1BiUc4/9M5x+JniT5GUpvDwvn96203s3i/n0/fdr8PzZT+FLxPz4XW/Ox8u+jSFxyk8vJzOu2/n08fr8/L77Wm2nJ9+nH7OX/i9cJVqmCF2f5YXngL/e/F1MT8eXlfmPpKPvb2j6O8D+j2XOoAdhQwAocIdEBylcB8IQil3QPRtkZtAVKCPIXlKIIYkxP2Ssocx5No0aUDRGMp9oCSSPoZSiQFQ2XqokZIAoLS/r4BQALKKt7IKwzxIpdx7kEwF5EHELkkKDNo7R85ZolboohoXlZKDAJuohRzyUMkXCySwN2ZRBg8VRC2JfF9BKx22iUCJrQsBVa2ZNUWqQE4AcE32FcCghBTwwSYCeahbmXNo+6kHs6QCO5MCYjKXqaKgefCQKaIlBcoD4HGqgx8AlLhM4izAaPdVCgOA+obmNUQrKyyI61ZbARkFrYBR6brIu32DLSAI0JofdmtEspaNLlCQSomKs4AglSK5wYMglbiNqPWSUKa9HVpzKpGHzwI6g6oBAmwzRYZ6cG0U3xuLpt9XFRrU9Dx4+66hPgOo6axNoO9LxbdFbp8FvI0h6ygGedDDiPGQmDLYrcFT7SsuMjEAeAD0E2hSe7a9VT+BPFxFv04gPWGBmLUV9/Y6X0D1DFMdp8AN8xCeGpw97bkW/bY4dp4rDzaQZleMOYO1M0ky5kiZaJXBgz+1zrwyR9XSZsvN3ANz7ftWmQDNa7ZCogNqq6KbuYA9/Ml7y3/N9eF2RXo5HI/LDWv9v71S6avlOhYe/wI=);lineShape=1;strokeColor=default;" vertex="1" parent="1">
          <mxGeometry x="190.1851064128614" y="-18.20711418248368" width="31.637205512913624" height="82.3840039959706" as="geometry" />
        </mxCell>
        <mxCell id="j-bRBase9HprXpClxs5v-18" value="" style="shape=stencil(lVfLctswDPwaXTHgE+Q5Tf8jM3FqT10747ht8veF6lI2kGozuckmViQWiwU1pbuX7cPzZor8cj4dv29+7x7P2yl9mWLcHbab0+6sT1O6n9Ld0/G0+XY6/jw8Xn4/P8yR89OP46/5Da8XXKaSZlDkt39/MDX5+8/XS/x+d7iJD5FaN4AUKKV1QAxUqgHEQiGsAxJTzBbA1CsANArRAEKjBnbIhYoDCNWyDiiVgmUpFKp9HVAzJZt0yBQArRIouh0CZUCrNCpsAIUkr8f3SGJzZmIG8YXYcUQCMu5CbHUhFEHReiMJntIGatC7TyBWqmCHwEuGi1SVNLyFa4aiWmwwiVQMoDLVCAB6ZHuk2igjWjNlu4MkYiAkrbNrBgWghm59LC8Aht3ThLplSdUeEaCOFBdaMwk6UvGlzokyKHVbuvHGlBCt85Gs+uZ2QAAZ6l/kyvhI3es7YWUE6tb1VHqoznksX+MRp6q8bN+vDY7707mwOr8gw+iDj4XSZVSsAborWv6oPcWmnDUplLOOAaujIqPuaybmkq4VSltdMjjX0zqiHCJ1awCSiYHPfxrQmJIzAKEECidxLA9AC1B683BrHoBmj47P6Hbg8Yq1AS3O9TpFoCU19po9oIAc5ktL8EdqoD+1fYMDZDx+ireY2RIASzpAbc6qd1S3Mra/OhIe6e8cQ/ujA47iWF3itY5A24GanQuqXQaUsp8j6soFNBu/0ykPylbi3fifRyd8P7u5VuCVRweAu4G1wcAKP2zbpsRxD13h350ny7gk/l/Tw6pupibq489e/T+O14frd8bTbr+/fKbcrvvvEv3r8k2T7v8A);lineShape=1;strokeColor=default;" vertex="1" parent="1">
          <mxGeometry x="181.448515772076" y="10.93681017680899" width="37.161168170762494" height="7.2244967219886576" as="geometry" />
        </mxCell>
        <mxCell id="j-bRBase9HprXpClxs5v-19" value="" style="shape=stencil(rVjZbtswEPwavy7I5f2cpv8RIE5t1I0Dx73+vqO6VMWVPUaBvskyR9ydvYbchIf33dPbdqPu/Xw6ft5+3z+fd5vwYaO6f91tT/sznjbhcRMeXo6n7afT8evr8+X329O0cnr6cvw2feHHBVcl+wmk7uflhaqU9PvNx8v6w/51sd4niXkEBEn5NgDfq80CqiOAIH4E+Nz3vG5SlTL64L00sgN8aGE0yYs2AoiS6who0goBBMluAEQnrhIAWBppTU4aM0klpAGQXf/ELUAeac1VqlKn3chSSeIZoInGAVBVEmFJi/iR1oo3JHChdQM6oDkKiGUF8OIIrSlZlgAIZIccJDRrUgq3ASVKGgE10zhU1w2YAV4KMakGiWNqlNyT5Tog2TgU0BopoIzZilxKJL0RV2eytYgSlmqVNgYuZ1HCEsJkfMgIJUm+FrrFSwDbIUmt1iSWS61IjdZpx3ZYFRBoDYQlAJqhtdEmAIBpxsXT3gqAKyNAaeeD02lMDSQ8DVySNDqNNsNaJQKnzgIiMwmN0VtAYOldbfeGD39GzHVA7hNtBmAA8ALKamnVOyVqaHU0vQGIJlsbzVb4kFYlmplJtVu8qIdEWEIc4sgSKo4pgQYpsipR1maQSz6tdmCAsqq4zLsGZuaKpXsV52wcWE17B6Vgksl1vfKfEC12fTSPFMwMNoOKxLGEEMzGAF7qKB6wZyDpN3WJMRKIDeMJkTUyEVR7EmuMdtM3FsRdVw+xF/Fii0ycCNFOLeQL81qz7ccNWpc0DmgsM9vRDplJUKImYacyJGXdLEtoDCw10ErHAYHQs7jBXNPIoMaJx9rrcdnHSJe5qosZozYCk/BmOrqfFJbKniQR1OCYEmC4ED5XtYw3LIVc77lzVuP8RPgHP2bydGl269hQRj65uxrtVOB0BmfHP/oEWz9n45zPfUhcX19tI8Jpksm8MEuuxXlV2Q7RWgSf6AHXW9UWeMimw6EBQC2QKZWt2g6ero9Ws8EDVpOha/fF+kAo0n6aWNRAZg7bGlYc8cl6Z8cZkprXmMkJ5VPfr+xPVBp5KzjBMDuxqdUI0xUJqflo4ztFhNgDLWiuYJT2RLSEaNdTsfmPl0j31+Ph743Vy/5wuFx4Lf+3N1x4dbkdC4+/AA==);lineShape=1;strokeColor=default;" vertex="1" parent="1">
          <mxGeometry x="211.52974698403318" y="3.1468941278495777" width="33.70312209910185" height="50.55386280872142" as="geometry" />
        </mxCell>
        <mxCell id="j-bRBase9HprXpClxs5v-20" value="" style="shape=stencil(7VrJbhw3FPwaXQnuy9lx/sOA5UiIIhmynOXvU8SAPc1id00M+JCDbraG1STfUq/e674LH749fPp6f+ftt7fXl9/v/3r8/PZwF3658/7x+eH+9fEN/7oLH+/Chy8vr/e/vb58f/58+f/XT31l/9cfL3/2J/x9wblgSugob/+5/CU0Uy9/+fUCeHp83gGa8fP66EwT67MpcV4fTUvn65PpP+3XN2Plemun9SmY1NT6ND8/VePk+eu8PnuTxfO3027rs2nxfL1zprYJUJyJXgBgIQIkk50ANBPmIxX8pZ4DfDDRTYCKOwsf+GJ8nQFwstghOONmr9UsrRqyCXMY1WKysFK0JgQ+khVHQhjn2dF1e8QxIBg7A0o0Ue0Q2NMIDZVqHTA7DrHqrT7S7IdYTRFmxaXr7Glkf8nSrC7PAKS/OFKoJs8AZGBQAMTS7GlvTRTBF5KpZQI4nXEhmjSbFSTYxKWDN362UtPrLW+Qh+eP0wc2Ig42TcQ21odG671+fpgj1Y8Nz9ZHMpDMZqwvvD4Usb4xx1tThcOwvvJ6xZDd/rxeUTxC2Bdab1WIeuZ4rFfP9yMJr+u9IOwA/s20PumAJiZy+vzgqUDrk4rnbOx8/iTjGTlvKSPdYIEzGvKzQXHjoACReQsxokzUeXA2UdiC8FgmeK4f/RFih5TYaQk0pIRIGTpoY4korZTaKMJbwbGSrDOq7OwHKIUgjgRpw9KiDdcfA8IoYFvRDCYLqsAV3VKWbwFIWqRRIM4AFHwAFLVD4FiCFlF0CkD0DChKQnrTaIcyDnkGYPFSZNGEp3NjQBQUAwBRWN9BWckyZwAgEwikXdlKqiwDwKozS1oCgD2dZbRCPfGRkt6hcmggH/wNwEwC0ISq1K53yE1Ga7cSsQbuoDxtl4YE1VwFnxuhthFZ09EaR7XfMZ/StbkuPViWly6ema8bWuxQMkcrblVFtELru8hmVaoTPMc7NMmtiE2qDwWtt8jp2rjqljq48LjzdKNm7tq2Ku7QwsKtZRzyGBDZD9gzqWFBGsJuA6TRKp4BnGdAEsGHn9uyg1OXzpyiuJVS860wCWAHK4is1VHRdgDFrW1rx3cANVMBgM2aZYPurOUxCa6l4rtvQWaqkvoAoKoIgOoa8DNNnvCIpI5UuNEDQPWeMEojnWu1su92b7yFnIYlllhXO5ylEPWGsENVR4IAagxQA7EOIEeUMbM7AxB/w3BRBXgcZt/FqxKi+Jl5I+lgyouVohTTuGKyPwSorDaa1pXwK3s6SdUHQHGLWZWn28iXneMk4beF+6oO7zZGozuAdFw9yAdV5Y4B6g72KPhUHW0LwEsWqJW746qJ6Sr/dz1KERKrri2Hleq7blVzK+3bfPNYz0AxzaEBSaRSFI0ej6CaDA08j9QGBJASD/i5zBmHrkWqvsjhjUcox+WFKnEHNRcDIM75cEN9dwA1yE3Kk5/Uvuojvbev7+3rz2pfC+0QpVzvIylKoCYnfanwJBdE5tXbujS09gbQHUSKPHvPuiFIiCXqRqt+8VNZfcc2hObZ8JGqaLRDfRwDLO8Q7HDl2cA1ztzqnXyPEzxf2t14JdDGDGDzwxiQno34319RvL+iuK7/H76imJlL9+ih8HtMkIR6PtT/TENOfwYQLSsFp9VOdNznuTaS+hjgueD4KIcAcfFBjyrFjMv0BmYIIipi4SwGuSox37mXXprU0b2eASiPc5GJExdigTR26khlqeN6dBi3ry/2SkEBlmlmu0EW29B51/IoARbS0np6/Q7dc/o0N+Y/p/XA8h2SKgjLkAFdmGTgZSLb1Y5wnFsmgdWPpD0GOK5RpchJYFnev21D4GNHc5eXq3zB55YGKci+0/LzkTxKSy0zwBSkaLZsH+SG4jzPGiF63YnwnDToAbdzHEOd9pVBHQ8Arx+LHAM8m7QDBGtDZrkVoI4UuNW5lq5jwDL/699CCS8DQKkJgAojAKiv6NVRWSkNLbEDqFJ1ALjh6WXC2L8jUskf+eutXrG1Wf0CUMnzwx9K/gcA/nH9LvPL49PT5bPO/e/8HSf+dPkGNHz8Fw==);lineShape=1;strokeColor=default;" vertex="1" parent="1">
          <mxGeometry x="234.0070199963934" y="-19.830769270555834" width="70.06057886816006" height="81.7826678988664" as="geometry" />
        </mxCell>
        <mxCell id="j-bRBase9HprXpClxs5v-21" value="" style="shape=stencil(5VjLbhsxDPwaXwmJ1POcpv8RIE5jNI0DJ339fbl1tV1Ru+ME6KXtzV5zvHwMh5R2cvV8f/O037F7fjkdP+6/Hm5f7nfybsd8eLzfnw4v+mkn1zu5ujue9h9Ox8+Pt+fvTzeT5fTp0/HL9A/fzrhAPk0gdt/PDxzl+vPB+7P5w+FxYe6ZfDT2zgH7SmztA2/bc6TgOntPJWzbi7obOvtAEfgjlXzp/58pA4cCU+oD0JBqBIBIrgdwbjGtAxLF3iXJ5JBLibzvY85UPAAI1T5JMVMFVdYsVe4AqVACLkkg6WPIhQTUjQvV3AGKRpUBQKjUDlC1MgCgZYo9s2smEQCILSczoJKAoH2waVVAQQBpP89cchfaR8nphlcA9nlPafDpV2nWAW54Ay71zP5FWhMgX6XQk7Wm9mTD3ktvH8mDFKl9n9MqlEGZq2Wq8gj7Y3nniVHJHCUTgIPM1pLFPqPlQsky5Z7ZRdqT9d4JVAwAuyRi35BzE6ktlTTMzpEy4Glkcn2WcqAAXEpucElaotcBSuO+cJmbqq0C1OOULQDNkuIH0WNIDWUyG4CHw0dbJQ8xOETWQj5YQAFpVXXw1daB0Ru0H0zhIhUoMLPELcgEo65DIVTLEaDYHtXSQM2YHZgBWjkwELUQ4iyggqhroNyXWnvUIYCsvCEil5QJwQYdgQqobpm1QVXAoTe4NgheOdRXAAl20OiSsg/JRh1lQ1pPvTKtU4+iGNQBQz6PXUqNOQsAGtET+bx1KaKJVVqDLYJ+YwPFloY39CjsoNrW8gU3KgqiNmlcsA/uDcWeNJTfaPHWQpShg9BaPMmxkQ1pfPwzgDKOduyS1smuxQzZl+rgEp5yyVMYYkA6E2WoQ8C7wDzIF6s9GimSmjLOANUZdBYow2rvYNDMlhrTkoiOuf/tWcDs6v/AWQCJ/d9/FhAKwQJQCfTwkEyzRQro8KApMSO3QlJwJjabOkPBEG+3sRTgNiahieh8nxHbNdaWwhhJCvkSwLxB5ousdUCk2NdB8GqvP9f+DezhNsbJDvVJc5CGFUs+ZRe6iFKBMcPH48vA2M4iixcUdPlmQ1b7jHTe7hhTAIjbdk/yDp6LNeF9vFhP3TDX4EWDa1I1twE84A4bWGpzd+vf+yYL7Vy2YW7vGOHQ921HnskJD2BsB7hOHtRdo7kDmXnjFfVFc/3w+zb87vDwcL5MX/5ub8/10fnmXa5/AA==);lineShape=1;strokeColor=default;" vertex="1" parent="1">
          <mxGeometry x="51.08499594245177" y="139.99166390116852" width="46.14239763704791" height="38.24827776718985" as="geometry" />
        </mxCell>
        <mxCell id="j-bRBase9HprXpClxs5v-22" value="" style="shape=stencil(lVjLbhsxDPwaXwmJep/T9D8CxGmMpnHguK+/L1VD7orcHTc3ZzOUKHJIjrQLd+/PD2/7Hbv38+n4df/z8Hh+3oVPO+bD6/P+dDjLr12434W7p+Np/+V0/P76ePn77aEj+69vxx99hV8Xu9CIc7di9/vyxRHHvx8+X/Avh9cFPmbKrPFpG58ixaLxdRufPZWk8QXg64r/YRtfxJ+o8B6sXwMVr/DOAXyjMMfHk/Pb+Ba1/5ECwhfydcJXqiBfrVJrsz+REjhwa5TnDeQEBZzYu2tErhaVCsixbFHnGIU8orzp07xDTCNsWwZxNkiBAj41z7QTInrskjp0ZyLDRNTZoNzIdKU8M6/IqQC1xSDOYRXy5hs7KAP5gqOkDt3CLXan+QyypwfUEAd4bhc994DfEhNW/Ha4QnMjz3qLBMiUii7RfogGemTScW158HHVIKThwNVAAgd24DzYfDVgaiBzvmluiIEDifDS98Js4GEiArWk8SgNbI7sxo7rDpkTO8gkR2mmam0wB0Ka2X+hYgSssPhCEfujai1TAoNTzjvzuiYqIMM8CLPAo34k+VJzJEIGJdNcEjmwftZzXPABULqMMbaIjwN8qJSqxlc0yKmq+MiOcH3Ff+FDBa2u6q4ifENjs5gu5CiC9RPVpPEV8DOOWbGsR8gH5z+yvoiCqPEov87w4So0NvDe1CMSFUaE9PyCeLoxfJf8gfXossaj0cfkFV74D/wPpl/h+pJqVfWC6/ejeJ9G+S0caiBAEiFdAdIDAIPYzHpJWQMGoWhOC4fQmIxlzLhFETAoylQpqKphODVyM2XGQ3Cvl30dU3RpgBRR04K/GwBi9LpSYa1j9qyLNKfFsuhGRqpOMq2krDiJLiHmUifaF6pr1qpO1PUNg2T1Ozo0U5gN+g0BJK7rpdlAZB7U715PqIA7TG+4cwFxg2ztE0Zd1Rj2mC5plFjOWI5nanOmPVaB/cahqAGlsr2OF6wqzHU/w5ZhnxMEj6asea7AePsckkefXW9h5rnlBr6SU4UAOSQUU7Iuw7tNyHrs51HbWzcVns+bxtxax0fdjCKc4oJXsjfCW4TFB8g36w9D1WXPK/xH65t4+pHA/8yXowxUqeWD6JgbfDPPbx/ip8bLj39viU+Hl5fLU+Ty//rtUT5d3i3D/R8=);lineShape=1;strokeColor=default;" vertex="1" parent="1">
          <mxGeometry x="53.61039619022381" y="120.8930560017534" width="43.77849303606695" height="64.19589132344686" as="geometry" />
        </mxCell>
        <mxCell id="j-bRBase9HprXpClxs5v-23" value="" style="shape=stencil(7VnLbhsxDPwaXwlJ1POctv8RIE5jNI2DJH39fbk1ZK9md6fIrQV8c2xOJJLDp3Z68/pw+7zfBff69nL8sv9xuHt72OmHXQiHp4f9y+HNPu30405v7o8v+88vx29Pd6e/n28nyenT1+P36T/8POG8iroJFdyv0zdNgv/zxaeT/OPhaS4fpNZB3leJiQBUWhgAdkIKBJAk6wCIdmYmgCK5DICUJTcCaP3/dUBukokOwUkZAcV0YAAvqQ2AmqVVAgiiaXRDEMcBfjRrsxOI4+xKFQCFWskAPo4A8zQ7wYkHKjVxkfihSikISEo9HRQBlZEvSRpP8M6Jc5SuwG87ojH2BQkZAYXx20n1CFACMG569EMhN7JfFeUdcXSVsCCGErdV8XCfTIOhLmjhuNN8Tyjn4FGeMWpPWefwjNSiIUsdaZFjJ8oqQBMyNSWJxKYxoVFj7llqFZDsxqPX1KKN6JADZj01sxJmTzlujOcQJZArlSQOgofHc3WiAAidu+sAj7GTpJH4twP8KK8055l8GqkXpDEFfKfNRd6x+wRJUAwlsEiISFQnmfjYioZH+UBcXC3UKsizZGeBGBbyxD5WkxTvo8T+LYpXkGcUbVb6M9gzkiJoiaeMZTbw+xSJyJ/A9C2LVqSH9db965i5LJcpVyACQR2tNlMxgqjPvSZuAepoIrUiSjKXAYBzlogC08GMNJJIW8/4W1aCZGqAzJRWrOIGYHHfPPLUAJUFWus8mAEii7QiKaOVWDdloYzUK90MWwAHV8q9sG8BoIW0qkWvVDBda5TC0mNdkC/y/OLFgR+UNnjm6ZAQoIytVoYLAjK7kqWAiDp4FtO1l4wZgJLPqKboh0oCaNaSzlzN6pQdgUoUnjYWPZ7RlfVgU2ICR1hrzlM9lM4p5Ai/p/kmLwCMrhbzbnElYlejK55QqZUsgkpCAMtkU3126Ac2ta0DmNIO2TeNluRKpfaeblaCaA9z7amuPdW/3FOVvnS4LKio/bXH+Fnf1KeMzco8HjCtSlhlXkTMNE8SipbQGTkrUoxzNo3CCdH11LQ+PSbsI2Ol+6ZpGh0BydoR4mbLhGl0WzaiEB3U90x4Hspzj6T1oTxhfrfQbsQPRkzcaPk+4l53ZtedGfrhf9qZLaY2KxOexIIZCNb41t2zttYvylQxF7C6sNixud5erecwXJlbgnFEA+sfIeUprQtmj7FXm2xGPOD6Nu3Mav5usejJ+buIxTEs/PtgsiGODwp0GPS46ytd+w3b4HqTztexLwQu4qziL5YcuXck69UPJwku3nBk5JcxHkd9h67WDUP7wU1pqSrF3Ts8pRjpnAjvfn/7q7x9uDz23R8eH09vhfPf8XHQvjo9LOrH3w==);lineShape=1;strokeColor=default;" vertex="1" parent="1">
          <mxGeometry x="115.53718312935553" y="120.66729975649196" width="24.99884149624222" height="53.53991302365512" as="geometry" />
        </mxCell>
        <mxCell id="j-bRBase9HprXpClxs5v-24" value="" style="shape=stencil(lVbbUhsxDP2afdVYF1v2M6X/wQxJs9M0YUIo8Pdou90kMokY3rxeHUs6lo488N3z5uFpNVB6Ph72v1ev4+NxM/CPgWjcbVaH8Wirge8HvlvvD6tfh/3L7nH+fnqYLKfVn/3f6YS3GZcLEE8oSu/zTgHJ/zZ+zvbbcXdhXxnQ2xNDrbcBjQCTAzBDCjw0hUYOIAK13QZgSpC8i1wBIxf2Gx1AEUTCJP6TsgCMB9aQpuKTsCM03QYoQRYPqGFIJQEXB7jg4SpC6hLyyYUC4W0AK9QuiZPTqwBqUD2vNQEGxUEZsPnqU1AKAALiyy8LUFAcpP1FCAIHLLF58ABOS7Vcp1UAPYAwrNecQT1LqJCDkIyTVnoABx60QcE+pBwAauuTtqssUQcV4OppTaAcABqo76BsLRLUkgHQezAaMGCpyRLAqakthyCkWqB6Wo2GFiStJo2eVqOhBSpQrJa8B8sqAmQC6gB1ucrrxYe9ujZT14DWCYDfAWDpPUxSFd0DSHdvNmICDZCeVBNvieS+lwyxaw7i+TQcrFIxkJgEzcdj/R+db+PPq6pFGNnXT91vjRAIPZpG+smgsaYSVJ8whb3P2L8AUjg8+dQkZ/svxo5IFw8G+X73RfK1vS3Oz5/1uN3Or6fL//1zybbmpxbffwA=);lineShape=1;strokeColor=default;" vertex="1" parent="1">
          <mxGeometry x="148.0776149617302" y="170.88786638140618" width="5.316100080615797" height="4.843720277899365" as="geometry" />
        </mxCell>
        <mxCell id="j-bRBase9HprXpClxs5v-25" value="" style="shape=stencil(lVhdUxsxDPw1edXYki3Lz7T9H8wQSqaUMIF+/fvqmvH1rJBleAvhNtZKu5J8O7l5ebh93u84vbyejt/2vw53rw87+bRjPjw97E+HV/+0k887ubk/nvZfT8cfT3fnv59vlyeXT9+PP5df+H3GsVDRBcXpz/mb0kj43zdfzoDHw9MW0En7DBBq5TpACqUyAaSRVgDIVGQCcKPWQEiVLE2A3CmDkLJRyzNAqIMTcqVe55A8yAwAhXjmIEoZAWRQXNNaSECWHFBtAlSmhEPKM0D9JzoANMpzSC2RgZBcSzaTbp63BCqdRplWgKsLiE+M0szBhBIIycVsMwdTSiCkqmSzNKxRBVrSGtPqANPrAM+JzVqySgXUwTJljlkqBgBKfU6ret5ASGbEc5ZUiQHp7oWbHaeFugAAE9cIYEC6l0FxAxBAumv0w1IZdIKRpEhaEYc+yrRJa0UWTWlobeOgBgrhR7T5iOb6BoZwEjazdnklxNq7ezC14pDqaHQroMEu0IU4AGwU/5qYeo8ndEDa+kVa3bXIQY1KiVliZAil0mIdGIWkQ2ubSqOJ4gC98GgDWXIObR7ULteGSLtcg+XqUPzbdchU58K55QoyxDr4t6YGpF1L/eIEQ33GSVskDeXtgz9kaZ0A1wAhJC8cGqMLIGiJMek+pLYC3knrhwGZdPbDMoJAWq3EIefttoETFvXPfliCBFnyuobCbZrh24PXB4jGIxQ0fN+PwsbkzRDFJBI96nqs4ATfZySElKGYljWxxEKg5mpjEV6fZ6ogST4Cg/Z0bLJvPp8uHO3TARC4mFc1jzpeez5cHgTuPilWwC8HHcYfGgwrXALy2B5X1eHRI3EFyAn2VB0L88oX/nxeqzmexx7gC/1kaEu/U1iJ8aOVvuQxxVYA3nmKRgtwh8tqudgvZJ1012wcrof+E9DGNXY7bx2Kstpj86q+DgPSvK4fGwBsFBqXVQcg33ihk0QAqoMrVTUC0BWXOU7/+s69PseVp+I7AKe4kCwtHF0PE8nsnuoXUEQ6RfEtV1x8goY6JHifdNIy16F0uCN5Wnk+odi4/10r3Affr7wP8A//X+fcHx4fz2+Dtv+Pr3/8q/OrI/n8Fw==);lineShape=1;strokeColor=default;" vertex="1" parent="1">
          <mxGeometry x="152.34765685966636" y="128.96065480034144" width="36.61368839798206" height="36.1473654383542" as="geometry" />
        </mxCell>
        <mxCell id="j-bRBase9HprXpClxs5v-26" value="" style="shape=stencil(lVrZbhw3EPwavRK8yX52nP8wYDkSoliGLOf4+xSz4GZY3KmF36Rd9pJ9VRdr5iF9+P706dvjQ/Tf399ef3/86/nz+9ND+uUhxuevT49vz+/46yF9fEgfvry+Pf729vrj6+fL/98+jZXjrz9e/xy/8PfFrrueh1H0/1w+CNVF/98nv17Wvzx/PazHt43X53q+vrgcl/UxuR7l+rqsT8HVrs6T1t9PfX5yc3133i/rc3I5na8PwQUyaM6EwyG51lcDczUIg+rqmoLinVcG3UVbd6guZGnQ1h2SOS+CCoNEBt4FFaXm4mqANOciDGxm9VpHNivrzMDWwovmuvAhepfK6kN1RewQg4urQdY+xOjqWqvIdFNHylumizORuNicT4tBDc7UkcyVtVprlTukyP3QgvNiBwQxrkdqRVYrSo0QptWJCTcNEPWyhrVl55UBMGA1qF32dEZ5hzUP6AdRGjDoa2mUNGHhtoG5sFbrnRaFQaaOA8zYzxjEOz4YA9noEFGtcLrQaIiuC+QDMHKm9WhAwxHWuyAOVKJLjQ9URa0iSX3dAC1rojAKoHgt7pRdEC5UP7N6zXOZPX7bILu4zivs2UT71C0L6OgifGiRIQDtoyYu+tfW4u5h7nnbAN2wtk8vrotu6FviuslK6snZ6kPPEuzxdVlHIkAmqh2ys3X+VI3dw4BAJk/oPDVYfShNRym7TJhh85BnUQrEA+IEhdsGgecPQEaBfcMBiF0hlQKVkGmKEohDF+WNysmrDynNYrltAEwJ7HQV/TBKbQ0rcKQLHyzykWqaP3HbIM+8XosvyVoytDyVd5BAZp2Hbu9yJBoSt0bJijxS8J6JAE6pYANb9DVM1mRTw6CsLQe3ZJhscs6rAYaeMujMHEYcRMvhxAR9w0DVRmNSCYMmWm4EcfNBDTkY0FyHV0mFdSNk45CqXGFAtVEnHzozSJTpcs+A7htoEcWkbbs+WJpxOzPgsII1qmrt8wBHA5U4Y+ptSdcSyjuw00X3A9ElhFVG6Vqbh8RllWnbyrvpKBkD04ib6gfjq+j4RLdo21pUTUUYhNWHA1Sd1QYxJtNsA1HkuAJn1A5gYIXDJPG7zqAcEqFY388bZOZk5nWPJsaZQbpUqsPE3iPFUoO3T8p2YK5yUpdtUlcpU4Bt0OAdtyzFNlA5GwFSPoDqEplOQfYoGBPpUTHeY3105Yh3nN7gO12VjjPGRFJLwh1FoEC/Vv9BCJFUwG8aWZesDwakCuKqJpHMb7pG0FPRs05ZuxzU3W6ROEV1bVLnA4lTl0v0A/F7pFJeauq8ex7nruLGcSoxhwHRdHmTggVYCGIHtDzds0bc1A4I4prpcZMTYW2eyxuHVLoGQIWKb9zkRLXWwPOhmKtiB9zb+J7VZR5QzLv0WJUSsjVQzJIa4wBkEPI85Jk2EwgEpCidjftHD90SOM/6MQLuYKT9hDix+cyAtJygicNAFBJ/+j0DmlepS80OBkSvslaYyxVGr5WXpeg9CmmDPTV+9rDWJgVjVB5JAk3T3KEKktLSpSSQt/sJcFJBBoZNJWDNWpLuDN1jqIqwDlGPuE90QUAGhn4jUNKwh1IjHWSI3iKscZvqLch5FRNPEwBhVI8GPPsA2FMDbjxmWvth9KB6zFQ3AQtEQzgdyoz6gY6pFgXIpU1eiupI1ycHBzpW9JGMRG+tRw0R3bOBqlYcgHhDuD7lOcs0dRyGQxSJi5l5wyhHbUD3mdEhyofMzziTlkHGky9S7bQoDac93QWS5A0xcB4wthUYj4eia1jRD+pIqKVIYOwlatjkXocTKT23bi5neRNI865zpCVivecnqNlLqN8UwRTlkz6s35+2qOZk7QCdo/AlbXRYVvV2m+z6XjWh6grAU0I9SS5xQp1bY0WsyxYOngWxrmvT88w0qW5hvbGqIufTeA1iLbagL2DDYHt6eMeABLeBvNoHAqHRoeqdA8+PDoD2Cnk3+QzrlYBh2+9X+fudRcw7797cf1cHf/z/os+X55eXy3tCx+/5xSB8dHmpKH38Fw==);lineShape=1;strokeColor=default;" vertex="1" parent="1">
          <mxGeometry x="180.45273764758167" y="124.77499467334565" width="91.1414059889687" height="53.304144042936514" as="geometry" />
        </mxCell>
        <mxCell id="j-bRBase9HprXpClxs5v-27" value="" style="shape=stencil(7VnBctw2DP2avWIIgATJc5r8R2bi1Dt17YzjpO3fF+oOZRHSvq17yOTQ266EJ4F4wANInfTd1/uPX+5Okr6+PD/9dvfH+dPL/Ul/OYmcH+/vns8v/uuk70/67vPT892vz0/fHj9d/n/5uFguv35/+r484c8LLhHrApL01+VCTlTSP1c+XOwfzo8be6GUJ3stZHrdvpCW2T5Rl+v2nbRO9mLUy3V7VqqzQ6LEHQAaKU8A7lQaWLGQ2gwwYuCSr9lkBrhLBgCd8kxCo8rX7T2EIaiFcoX2ebYXamABbm8t2DPICeWYREwZcOz2LU32iVoG9jJS7NVeAcWqg9BXe0bxzFR6sE9ovU4wR3uQQWpUavQf1IzWmA+JKsgfbcQh4UhR/Fv0n6mjeDZqoSipIv/dfo6nUkbPr9Tn51fMl0V7dofQC2xXAAmvuA4R3MhWQxR0klkkMs7R7CGfdSv3Ia3HgDxqZC16GzJwDKikcxUYDx6PAT2WpRklACgyYrLyxhigI+rrGyoJYLoUqnNmm1IDqV0q2byG0qmDWvbbqm8JqxWSABDY0aoMB1bA+ohjQInpXdoQ2GNAIwlh5aE4h4DmejUT50wjhW8cc8mZziBbm8Sw1jqcPAYopZlpv8JAVP12n0WsrZ39GJBjeneBbbN7Gwku1dEojgE5qoYDEsil7o1k5qEZVeSSRWW9BWhxXltcAmHtrkIcAQaYdoD1yEMGucRp7a4rwtUT+9RnInqCM54D8hzXzlBcPUxWIgC1uL7TGU8m6JKNoGwAipgrI/03AEGAPIjdrAHpvee3pAgQFCUZmbDhIaMoSey7znQBWrm8YZY+TyZDAF9DeEOFDcKjxDuAgHR1HmRXow0t2pluEVBRWOtu0TaGg2vZGrqirwEN3F4PUZhwR1kqLkdAv1GiQQX6kKqrshEqLt1Ssr4rUZhLbwbk2IKc+wLk25cYmPZ3NtSzOC56I4bHrb2OneD6Ch35eAywqJXuJZrJfNqogTmFu7Gao/Qt8wcIU9XRBFeAwAry2ULn7LMGxxPbD0ACpw0fO0MF+YhV8dQXpM/fAMdEjdK3jFhgPLG0m429ptDJSh2bqjWsrm2AuMJxFlgmTeBStuHAvyTO9yhhnjE8MWWJFeRxg0cNfcjQSlzFZx82eF0BNzb3Gpn2rRoa4pTj+dByBURJejwfWnaj+HxIZpd8v4s2+A4oM3EGReO/HBDFA4H/D4g29j/ggEiC/U93QISf/7YDohZnMMP5YHEUZtz6PeEiwEaXO66wGjOIOwbo7mBb4Qjmz0tzTvuikZZyjjOblyk6p15iMrPsdYF2bt4i5zUr3kvWOE+9Hnodt8C4k/T2UKA9zyHNCpW6xPW6fQZlk8cWcGOPBnmNWe32aBzUyPBij/pA3K+5vYHnc1T1rHDLmcbOaRN/dLKVYuNzewX+pFhkng9o5N+dE2SGJfPWb1m37f3H64ezz+eHh8t3t+39+KHNL10+0un7vwE=);lineShape=1;strokeColor=default;" vertex="1" parent="1">
          <mxGeometry x="254.38178291977738" y="128.82191901747592" width="56.45095247550057" height="75.63987340172525" as="geometry" />
        </mxCell>
        <mxCell id="j-bRBase9HprXpClxs5v-28" value="" style="shape=stencil(lVbLctswDPwaXTEgCYLkOU3/IzNxak1dO+M4ffx9oapSDVbaTm8ShRUB7C7IIT28HZ9eD0Pkt9v18vnwbXy+HYf0YYhxPB8P1/FmT0N6HNLDy+V6+HS9vJ+f5/fXpylyevpy+Tr94fuMaxTKBIr8Y15IjTj/Wvk4x5/G8118jFSyBxTitA9ImWrygLisbAKk0fTtDhALqewDNFBkD2BKdR9QlVp1gEDM+/HNfqcunokbiE9LvmtCpArilbIvoJKAglsl9S0NClvaGtXgE7IWAJYN0DzAWC44peZTkkqMa26+p9lqQClJLwtNi3b3WOtYVqUEANVkxj0gAF1UIfFd0risbAMCFe+2nEmBUovx4JUkuiS5BwgdcVYDIM4AyXcpZmwepuJ3CJkEEFdjz3QhQV3N1Do7QyVVmxdeeozdHCn37hdkHqOoEx4F5H4Tvo8PiSpKqFH2BcREAioOvFa4siwUsJ+TF57IMse3AaVnOdsOyM+5H8I2lpGOjIbfM3QFYC9sA4CfVUg9wKRYAXM5/DWH1zm4fbaVftDblKoAYMR2O0yzHImpn8N33G/7mdQDJupRzSRerMY8Ov9NmV5IdtgFUHGg6s1mUxaZwaaL90LF7uReFEWWw3ovvpOp1Qvy577e3CDDYXHuGm/9Aaq24ej7LzYdAV/SnyCSiMH/dVH8Gs8UQf7/ex/8d7w9/Ll8voyn03x3vf/eX1Ztab7opsef);lineShape=1;strokeColor=default;" vertex="1" parent="1">
          <mxGeometry x="303.9012311491781" y="151.19910560963604" width="22.006341653461277" height="6.905351677998169" as="geometry" />
        </mxCell>
        <mxCell id="j-bRBase9HprXpClxs5v-29" value="" style="shape=stencil(lVfLctswDPwaXzEkQYLEOU3/IzNxGk9dO+Mkffx9oXqoiJC109xkiysQwGIB7Pju9fnhZb9L4fXtcv6+/3V4fHve8ZddSofT8/5yeLOnHd/v+O7pfNl/u5zfT4/X3y8P08np6cf55/SF31ccBwo6oVL4c/0nZuL475+vV8DxcFoAUqbp3RLAlMM2IApJHgG127wNsO+NFlKhygCQSGQAcKaIrpSpjhZyolKB04F0BJRMIQFAoTyGtSjVsg3gSCEMABGKIA8s1OoAqJEEWMhMcYxSFUrAQlZqY+JaoNi2AUVIywhg6INYmhygUACAGjoRZoDATNuNVT2gIICSNO90AuTTSGn0oTZqwAedY7IABBBWtZiIB0RAPrU8BA9QdKVGmb3TDEpUlcroQ0sQEEPw/G5WhCARZsLxu2HZMEAca9RyychCpTZ6bblEZLK4OrpqglqpuVNnAajIh9RvvABkBAhUsvchC+R3zD5K6EqteX5bHgRZqKQucYUStsArMikoObuxv1LoqdyKkowqUBVK3xR1J64WhgwznddFjWuUVwDUgnQVVvMBOj27OEcpdm3bAjjZMPmGsmEAp5WCK05XOtNIEGBFjYnwgHyfBhg3iytRCytgay0ko4WFtt3ucqtEmAkGmZPYwz4DMJkKr1SgQCdy6R1noTOIfVx711xkLqGJybgxNi0jUwCJSPZ69MHGE6QCcT0AWdMCA1C0EWuUDWFi4MM8WswzXIFsTX50yLUXyM3zoTfA+XyALXHVQjnB+oxe9SaLIEBC2bW3rrObU7SrhD5Wb83Edfw+rhsbiSW570c0QidqzZ2HnLYRfix9675A4+28myW5y9nt88XHxwKG7iO+Ndt8Duhj55MrgF4RW+fdqqdwVOCZ7R9KR4oD5AYq28xQ12T2G4btftBlK7HqAQqEzjjE6/UWXemz+/B/AOzhY/1+OhyP1+19+d6v6/bXddXn+78=);lineShape=1;strokeColor=default;" vertex="1" parent="1">
          <mxGeometry x="325.30828564673607" y="139.0077469359644" width="41.13428257456508" height="33.53853630674803" as="geometry" />
        </mxCell>
        <mxCell id="j-bRBase9HprXpClxs5v-30" value="" style="shape=stencil(7VjLchQxDPyavapsy7Ktc4D/SBWBbBESKoTX36Nh8TDS7nQqN6jiNtmoZyypWw8f+Orz7fWnm0NJn58eHz7cfDu+fbo98KtDKcf725vH45M9Hfj1ga/ePTzevH98+HL/9vT3p+vFcnn6+PB1ecP3Ey4zjbygSvrx+5dCWn798uYEuDvebwGJmnrAoKL7gEHanH1pVAey7+zsWShB+/D+ytQacKBSSh6gpH0fUBIlHyJZY3AZYF/wLtRGjQFAqA/vcyMBSbAQisagjgoAnVL3WWvEyOlOHHhRKWcIGCUSKSGnR/TBqFWQD0oiDjBoyL49W5a8z50UvJ8zjRbsBYSIOca0U0fnqVRKOH9F75cZjmmv1BOwb1Mna0AzMVCCAaKUmRh50COxs5CgL/SzIxlNgM+1kPgvGLEVaK32KE42VgDaSZ4H2MofOC2mBJ+2liZRLgJaoRp4ZBUEqLl1Kr4i9T7DcBHQM2UfpVFggekymbMCGuTSyPN965GsyoMvDPuCd7qZXEG9GEZmnwdZK/lFgHIsklZVkd60TnmtAKEMyKdC7PVQK2w9ap3MK3TpPSDT2mdMNoABoqRWJFM8UkNO62zGmyglUPUMEAYAkxQqqzmlCw0UiXr5hA+TiVAB+wzAvtILz6lgN0yBTJZqRKZOzfsgFiYU1xYLkwEY+SCRfXakgchUSUKUKkyECWJwjBI8ElMtMQ8VAzjwW2GD0JX+GzKhFmROl8A+wfy2YTCMe5UYazS0IJMcKn1GjXw+UCJ6D8pnZQPmQc98EFjvDRAmGQtrQWXDWlpwWuchdwGBSxkOYwaIbGWsuBcDJDrd8BStRmafB+tZqMxYD2w+StaUUGe3rqi+Lhm7FJCvMxUP2FTPvVkgeScWEQKvbdrQ0Nr7VO3ePBOc6ArnUCmxadk8g3YH6zjF81sUdrmaztriKpG90TiM3jb1JbSS6ay9m7ky4f3n5QuTz8M/uTDFBej/wvR3L0x2JPUxLQk2HwOEdaYovDrgdWhexZmpgyGXSyT2M9PbIh0f1lbnrL97I+PD2gY1oDVTVvbitDqLqGSrg1eOlVkk5jRr9KaANZCFsxGadXJ9xz4Mk4s0UYRmhjbFCL1f4iLTobuDergcmim/3Jnnhd80T9Dcyhq3YF9AME21YefBPdbYEIbOBHdbE3k6Oz8gz3KnKjE8IFmWm3BhwDBZZj/CwEkD+SszmSub4bi52IeRYl4G7p4n9MoEO9nisKebpRDJ5eW31M8D7OHPpfi7493d6U59+/94iW4/nS7g+fVP);lineShape=1;strokeColor=default;" vertex="1" parent="1">
          <mxGeometry x="357.12182842205107" y="143.3723791117543" width="57.521724759979406" height="30.220522822192834" as="geometry" />
        </mxCell>
        <mxCell id="j-bRBase9HprXpClxs5v-31" value="" style="shape=stencil(lVbLctswDPwaXTEAwec5Tf8jM3FqTV074zht8/eBqpFi0NVmcpNpLElgd0EMeveyf3jeDYFfLufTz92f8fGyH/TbEMJ43O/O48W+Br0f9O7pdN79OJ9ej4/z7+eHKXL6+nX6Pe3wd8YppTSBAr/NC1lJ67+V73P8YTxexUumIg4QmVLeBmgmCQ4QDBC2AUVI2QGEAoP4SupTYGIQXxNp6faPZTu+CWWfcaIIEm6Zok9YhFIEgEbqD5BGDDgwQMu+pGWp2f8BtT9BrQgKAJGSepYDKSCt2o190rFAWVTbz+eQmCJIuiQK2gNK2wbkStHrKNpKAoBAyQsjKhVQ1nSjPC3E4IRkXmieuLasbAE64kzcDWjJrlQ68ygJULfZXfwJmTKqqhHtixTg/kZb8/FMgtypi/Q/4tF9THjZ60ipIjcnYp9vg8I26yRPmXVAZH/htf2sFYqf+b+jQAMV5M7c52A9WFBLkht3ZijUGvuqxgbNNgHKVwBm3tA9PJUyIMLekc5sjaHyVBehrYAIqTYlsKe6FdgwJl67KzX8eFpNohcT48dK4mL3qyMCyFqsi2qfRABiykvXvaoSupH2HckcWNCFenGbVAqo0Y17SoNPFS9CXuMVmseGCa/svD6OG/l+bUD6PN4+Pqaxp/FwmIe56//76c2W5slP798B);lineShape=1;strokeColor=default;" vertex="1" parent="1">
          <mxGeometry x="414.36565693546413" y="138.83427627686888" width="10.197999078805651" height="8.812439259879739" as="geometry" />
        </mxCell>
        <mxCell id="j-bRBase9HprXpClxs5v-32" value="" style="shape=stencil(lVfLkhoxDPwaripL8vO82fzHVi0bqBDYYsnr76MJMWDN0FRug1HbktVSyyt9+ti8vK9XEj5Ox8PX9c/t62mz0k8rke1+sz5uT/a10ueVPr0djusvx8P3/ev59/vLZDl9fTv8mHb4dcZxpVgnlITf55VKJf5d+Hy23233t/aZShjsJVFSAEikMgCiUAoAEKmVAZAyaYMnxDQAciVNMAblAVAMgGK47He5pEpc7gMkUBgBRakxAGRKo0s5wRhUSLK/pQQSF5m4jXlgEpCHmInHE5R77hcBKVIdT+BCGSQut061C0AhoHK/9RsAg1ua8upOYHhCaT1N13KIyCOhqGMaOnuX7RNlVw2kyL75iJUqsG/Sw7vunwDvWqI6+pNJAItaJVF3P9CfRnkkEQuxQEAb+5GV978t7gF49IhtBYVcfAjywKXo+8uUNOSS0XTWIzNwqRZK4gEFuFQjheZdQrU5rxwLOqPKaRSyv9ZSAaBQc9WP27bVpj9BqALumUsyUqNBIbGY05iG/OhSXQ+OMGLLWvO12YA/RosU3f5IRIx3dbQ3pQUpazMWFag5Vjk63g+HnsNlGQwmaw5htYHL34VsUhrQHc0BBfpktJOxONWuDWh5zr7DGwCJf+beHS5pw9KcdKYJtY8Dy0prIY4AcxL1PFNuN7SV3HvU8rQQ/cRjQtTACVYqjtvGRjQtGHXUSfOVLctH+L7dFJ4Q/Aw29QNA7+Dbi02FGZTzjNsp9bTcsffVzLDJcxfWm5YtwB/p0V2rOQJ3rJ0793s3WGaE1zSlghjnxwrpZbdcMySODBRQJ+3/dvPQ6XqPa0GcPWKazXzN788gWBsqXeMNUAhsQnHCwX2quvf+qF44BD0/CtUxWfZEQvvbzDoTPtTX//cN+NDePq4Pzrftbnd+r97+7x+otnR+3OrzHw==);lineShape=1;strokeColor=default;" vertex="1" parent="1">
          <mxGeometry x="419.4041212014297" y="146.75376369432706" width="25.09915594155109" height="25.299804678087867" as="geometry" />
        </mxCell>
        <mxCell id="j-bRBase9HprXpClxs5v-33" value="" style="shape=stencil(lVfLjhpBDPwarpb7bZ83m/9YadmAQmDFktffx5NRw7QZSsltGLqm7XK52r1JTx+7l/ftJvLH5Xz6uv25f73sNunTJsb9cbc97y/2tEnPm/T0djpvv5xP34+v8+/3l2nl9PTt9GP6wq8ZFzPFNKEi/57fBKaQ/775PAMO++MCEJSaAygVAYBGiQdAVOIGAbEOgCTEFQCEygjIFYYUg0+6FAoRAISkDYCqVNNjQLIc4gBo9gl9DMhKeWRJIjWQdA3U3A6NGBSuMdURUGunYRUg3Dm5shSJAwBEiiNLllVjADDWHUAooB2s0mEEtM7bKkADafaAClhSC4l9SAJCUvveKL7C1EClVSmVEZAoIXkzE48xldpb5NEWxelbKaCYxO9g8hJMU3ENkUiBmDRS1hFQKIIdxExCPAC1nImpsQcwcIGpwYLPoQIXsIbIwbOUAaBZDq7UAhvCTKKNtJoxIRewHeoYkvUo8hmxiO/kijpIcj8OFg1RCgCY37umbl2O69Lg3mDLpkbyzis9mkAdtHZOFkkzyMH6QdnTmhFASV0dTN5AfAZwSZs0kBtbSN6+A3TjCZDuAKjSFsDIUiukuIGcCUiC526r3u+t9siX6t3JbsYjIIcSfKUX7rl+Ups2Rl7N0TMwppi8V5pVFZBEiF2cV15rF/A6r/6AMBqQVVo73LmMALGGzvmifSIYyO6OH5tuGlAed3+4Dnylc7xegn7UXGuGzxLxR0mmgmaA/u81HFI0fjLpWK5AFc23keqYLvcJeX197mq5rQ/o+K99YLmtR4K2abg2tx5VdyqXX69APUafG20jjMfK64YRPO5YNfO4PuN4MsnoEbUT8Gh9G/kX3O//e0P6B4A93C5kb/vDYb7PLf/3Fzh7NV/+0vMf);lineShape=1;strokeColor=default;" vertex="1" parent="1">
          <mxGeometry x="434.68700908194296" y="140.2576085038363" width="25.13665994505095" height="29.261881738498005" as="geometry" />
        </mxCell>
        <mxCell id="j-bRBase9HprXpClxs5v-34" value="" style="shape=stencil(fZbdcgIhDIWfZm8zQAg/17Z9j85U606tdqz9e/tmZ0c0uJ47xP0I5JwEBl59bp8/1kNwn6fj4W39M76ctgM/DCGM++36OJ50NPDjwKvN4bh+PR6+9i/z74/n6ctp9H74nlb4nbmSKZeJCu5vngmZ6jzzNAO7cX8FVKEsBuBKrgKg9oAE8gkCbLeUhEoEQKSUDZDLeWYRKIl8MEDRmHwfyBrBG6Amyu4+kDxxMoB3jhwgYu7TVAsVkFcWCs4CTBEoF4RctKeOxHIf8IXYpikHikAIf+MNUW94AGSSaoAoFIE3AlOyeWU+p2E5S9yfQZcQILVuQOwZdJNoS9Ls3wA5u2XZTIHECqeJ9kDpSaauRiNVcAY1QhdBzeLBli5WazpkSsBLV25uRaqWRyFawTQzRRIQYirJzq5atkBqLfouwqUxLBepthWb10vrWZY6UOAeyKCCtDV625mm9gmUC4Wc3VLJMMIE1BsA2FW9JraVlQB7n3c9oMKhCLEvIM1zBPZ25/umNQ1tVEC2G+fFCC8g398O2hNQuQlVu752DBfA+q0ptnqO5JFmeuIuo9DY7KjY71UxdJV4EntifPWorW++R/dC4t7V3DlIB5cHx2bc7eb3yvX//QNFp+bHDT/+Aw==);lineShape=1;strokeColor=default;" vertex="1" parent="1">
          <mxGeometry x="468.6680096706009" y="139.47534907961312" width="4.672539772115215" height="4.665236216357243" as="geometry" />
        </mxCell>
        <mxCell id="j-bRBase9HprXpClxs5v-35" value="" style="shape=stencil(lVfZctswDPwavWJAgudzmv5HZuLUmrp2xnGvvy80KhsRMreTN5lekDgWS3CSh7fj0+th8vx2u16+Hn7Oz7fjJJ8m7+fz8XCdb/o1yeMkDy+X6+HL9fL9/Lz+fn1akMvXt8uPZYdfq11l8mGx8vx7XRGK68LnFX+az1t8oJA6vEtUMzDIFLkz8JlyBAaVous9UgMeGzhm4v6IGKmgIDJJH3SKFFAQjnzpDHKgAgyKpxA7A10RNzbIzkZdCnmQpqh/186gCjlgENTj3qUaqfqxgXhbas1bAYXwGkOfpVpaVPcrJ5R8b1AbHe+7ZLO6qf19l0iSPQByiSTbCHIZ45kS2xQJKAKTE1uDCPGG2VrkCHin3Wz2dy3FA3zuSVQqVVQxSv3+ytIE85/6/JfcWDgocN7hM/BfOb3zBxEoNunZxCsAnyiYfDLsmdQa5B/ew5ZRfN/1qq9/KzLyx/A5UQL8jDt/SlOyUT6NqFQKgA9CZdfANSE+ZGfxSEddi26DRyLHlg+LZOF+iTafDuJtP4bWcaN+N/F6qOrcunvDtwD4qXrV51/5X0F9VQ/Z4hn4LyRGHzIlwM+P4t1O0dUAjRNLxLwzQLeYo2IkJUFJD0LVxBDaVXu/x5IldWE4fqRiT8iRHDDIKrJmXilwmlBVC/0J6iTqA6WlIXbQqxukdZkb+xNEYOEWIe/roGRBUlHE3t2O4V2gE1Y1YgGzqngjXrmp/XB/M2Zif4S8ySkxIJ7iDY88vLuVlqHf31FA+GiHA1UbVIDUpPYdz7jCRuzwbLZIj90f3cWLtHkTL8xntcOHJwfi/fBT6L94/Xh/d73Mp9P6bNv+b99purS+8eTxDw==);lineShape=1;strokeColor=default;" vertex="1" parent="1">
          <mxGeometry x="433.9047684385155" y="154.89383325980316" width="48.03752193200421" height="26.737312797847608" as="geometry" />
        </mxCell>
        <mxCell id="j-bRBase9HprXpClxs5v-36" value="" style="shape=stencil(fZbdcgIhDIWfZm8zQAg/17Z9j85U606tdqz9e/tmZ0c0uJ47xP0I5JwEBl59bp8/1kNwn6fj4W39M76ctgM/DCGM++36OJ50NPDjwKvN4bh+PR6+9i/z74/n6ctp9H74nlb4nbmSKZeJCu5vngmZ6jzzNAO7cX8FVKEsBuBKrgKg9oAE8gkCbLeUhEoEQKSUDZDLeWYRKIl8MEDRmHwfyBrBG6Amyu4+kDxxMoB3jhwgYu7TVAsVkFcWCs4CTBEoF4RctKeOxHIf8IXYpikHikAIf+MNUW94AGSSaoAoFIE3AlOyeWU+p2E5S9yfQZcQILVuQOwZdJNoS9Ls3wA5u2XZTIHECqeJ9kDpSaauRiNVcAY1QhdBzeLBli5WazpkSsBLV25uRaqWRyFawTQzRRIQYirJzq5atkBqLfouwqUxLBepthWb10vrWZY6UOAeyKCCtDV625mm9gmUC4Wc3VLJMMIE1BsA2FW9JraVlQB7n3c9oMKhCLEvIM1zBPZ25/umNQ1tVEC2G+fFCC8g398O2hNQuQlVu752DBfA+q0ptnqO5JFmeuIuo9DY7KjY71UxdJV4EntifPWorW++R/dC4t7V3DlIB5cHx2bc7eb3yvX//QNFp+bHDT/+Aw==);lineShape=1;strokeColor=default;" vertex="1" parent="1">
          <mxGeometry x="332.6680096706009" y="14.675330769066136" width="4.672539772115215" height="4.6652362163575845" as="geometry" />
        </mxCell>
        <mxCell id="j-bRBase9HprXpClxs5v-37" value="" style="shape=stencil(rVfLbttADPwaXYldcp/nNP2PAHFqo24cOO7r70tVkCpS1hQFepNljsThkMPVIA/vx6e3w8Dh/Xa9fD58Pz3fjoN8GJhPr8fD9XTTq0EeB3l4uVwPn66Xr6/P0++3pzFyvPpy+TY+4ceE60K9jCgOP6c7iST+vvFxij+fXtfxjZqY+NgptH1ADIFCMAhh6gm+IkabUibuABCpWg65Ugr7gMbU7BtKmctwF1CZKhtATVQAhxJJqgG0SFH2ATlSyxZQSACHpCk1A+iBChBC0qzTAlDtQVlV2GhT6pV6BWWlZDn3Tp1BkSj0TTygLNSSjw+IAPVN/jnvx2v9rMg9UwJdsWlsLWgAGgeKLv9AGdQnUrDxTScD8GXKtp7aQgw6YmnhJT7PjHb06q6nEyXw/E6SfHwF9YyRcvAJNVDQKMRWsaYKIzNSc3OAPlvBHqC4HmXoRQpgB1DSYGiUQ7Tm1bXOiEOk5Nq0UQWydWI3Bp0q8i5q1idWFr7TR7n4FyTwAp67fkUAeWOYbWpVIQai6Zy556tz4Dm220AXimCfsHx1LjvIn/3zdS5RPjK75moMUD6FohWsLYr8l/hY/BA0gcarLVcdQJ0OKCY6tvZUURtuueI11oXMaL9qCa1opc/r6n6RFGCrVIQq4KAJuHWgpxAkW9v4e8b7QNsmWNJ6CEB2p27YLQcRKiilOjvJDNBmhBx4s9PgClTO1e6QClXYxmc4Ott8EjxFjSdBa448u9/9+MVJFnOkgvLPvk8DXIEqcU4uHq18dZ6QXTyaG113zqsDMdodG+8NcJuN2zH5+qAjgvjlpPVHR/1//Vz5a7xe/Pk2ejmdz9On1fp//y2lt6bvMHn8BQ==);lineShape=1;strokeColor=default;" vertex="1" parent="1">
          <mxGeometry x="306.8170952495234" y="34.049137859467464" width="30.87320010846338" height="29.250440329413777" as="geometry" />
        </mxCell>
        <mxCell id="j-bRBase9HprXpClxs5v-38" value="" style="shape=stencil(lVfZctswDPwavWJ4iQSf0/Q/MhOn9tSNM47T4+8LVqVjwOHKeZNlrIhjFwCnePe6fXjZTMG9no6H75tfu8fTdopfphB2z9vNcXeSpyneT/Hu6XDcfDse3p4fl98vD82yPf04/Gxf+L3gHJXUQMH9WV6USJH/vfm62O93zxf2kWq19uzH9oWSt/Yuje29/M0a4KmEMUAiSEUBcuk+fgyo5J0GRAoghMg9Ix0wV3LzGJAKcdaAQBUkdS426MQUwAl5pmwAkjeQJcl61i7FTAm4xI44KIDkLYK0ssQQNcDBoGsgr11qtQcn1GwBMyVApVopaGY4cg7ap2rsA/5+1va+vxjZ86yLRh4lqFLV8ZZO9Y+l487xnR3y5LFHVWfIJ1wzCUHzznMX+AhQDCvEJcBsAcy6IQXRDq5aNCdEyGwB+GBPYKCdylSvYnAoaKZylSXUYRrA2ToURD22+vciNpRW7k30nUuQ20ysy5DWtGOpRzPgatOmtndrTE3B2P9vN0NtBuOPWyG29ifCBtyUozmRKWIdmLl5/sCN9tIcISMEYAIuXRhDZeoTJKVxpd3pUS66Wem/See0KRMJ7dMASboBcO+xo5kTtG5kDM55DJCp5nWdU+pTYjQ3q3apzX7gkkxmo8zs4BiU2W9aas5w7sh2YRqerFRoQ5L9pZqlLXd5jDYko06OsF20HUyPQsZsFW7O2iUpZQRpFbmYLU/IgrhUOpfP9gyn89Ui3CYX6HhXi/bFuB4A5mwPyKDFOCseCQDNQdcb3EWCMsios0qoCbZI1/f8s72Hq8LV8sLc1X2j/Qx1c+UP+7793BZvqf3NbfkU0RRob+pVUpfdbXxoneMzhFu52a3by8P7NfJpt98vt9DL/+21U14tV9Z4/xc=);lineShape=1;strokeColor=default;" vertex="1" parent="1">
          <mxGeometry x="122.19525967645973" y="63.58150894419691" width="188.7209895220917" height="10.633596014942668" as="geometry" />
        </mxCell>
        <mxCell id="j-bRBase9HprXpClxs5v-39" value="" style="shape=stencil(lVfbchoxDP2afdX4bvk5Tf8jMyGFKYUMIb38feVunSAtexjeFnMk63J08RQf3rZPr5spuLfz6fh982v3fN5O8csUwu6w3Zx2Z/ma4uMUH16Op8230/H98Dz/fn3qyP714/iza/g9yzlKqQsF92c+4Egl/jv5OuP3u8MFPlD2Cl8r5bKOz1QMPlIC+Ea1aHygmtfxPpNvWiARN+CAp8JagIeK6wKNnAlRgC7ESj5ogUKe1wVStkFlppBAUCPVqgUaFbcuUMTpam+owIciTusocSIP8lCzvaGfAJNYTNJhLcItcIMEkXWmU6GCqORHEIdA9JSASS1R1Tf4SgyKoVWKUTs9NFzHt8GDgZfy8xAfq8E75EAbtfiJ9yhCUm3R4LlCPGt7Ajmsv2l8pAzi492Hf0MgUwz3XFDJAQ51B3SGmQrW/7/5DLwoAIXZE6AT7B2sgp7hZgUYWxScFUg4Zy4aF1AOGlMzzYgCaF6CZ63/RlXy8O+jjMeFq3jLoYDxhhKeKk6Z6dYO2y8ZcwbvcPzzAo/tKbZHZBT/ZuPvb1G6ma4IS+ZKTabRNVYv0JQulHBTbGZcjoysOqztaZRwgMyg8Te77p0C1Y5jmRsBcShT0C5L34qoby2GZfKQRVzt7MsFLi0yjpuOqixeqHPJeDe84wyHpawUXg8nmbeIGGWxqfVavbEW6W59Qd61zSuZK3jsMWu7nTNOSLsDmQuLdtTCqI/V/dSUA8OJ0DfgZBNRUIehalY7WfmBRdluRbIKZmBQsEwSBzIoH2eJ1PcwQFW3oEUeI24Fnxf6G9Qf2eLRE8dRMDtCJAaUcDZfwgiG+i3lPJxQgtcDvDm4RC36OzOcyM4uFNJsEB8Eb/hTKMB8mSVZ+OyhPWYgCz+x/vuevLfx8vH5vn7Z7ffz8/zyf/sel6P5LR8f/wI=);lineShape=1;strokeColor=default;" vertex="1" parent="1">
          <mxGeometry x="139.78240052156457" y="191.16524349416272" width="222.47611937616125" height="24.25509219884748" as="geometry" />
        </mxCell>
        <mxCell id="j-bRBase9HprXpClxs5v-40" value="" style="shape=stencil(7VjLUhwxDPyavaokv30m5D+oYglbISwF5PX30WTj2ZFmtkmOqeK2DG5bcrde3sWrl/ubp/0u8Mvr8/Hz/vvh9vV+Fz/sQjg83u+fD6/6axevd/Hq7vi8//R8/Pp4e/r76WZaOf36cvw27fDjhKuBWppQgX+evgiT8O8vH0+Ah8PjAlAKMVtAGltsAnKjKBbQqBcACBSqAQSh3i4DUiSxPgQ1MgIAj/1mQKUEALFTCR7QwC3FRkFWAAGA4nmYTKoAkCl37zQ0KVGOFpCpIacjVed0ooIB3mn9AphWADuTBPugTDunmSIQnwKKZfoN8ektJSs+qVTRCcqDk3ehmiHTf/69ADAwKemtrwAJB1Bl70MB4itCyZ3QKQIfSqfkmFbi+mVAzSt5qxwB001NckzX4dU2oJJYLUU1CfjQA3V7ggYtA6a7BqS9VmWmgRAVZp8rlRoGmay3kYYGoCSKwOueRlYZgMpUgBNNT7BBXSsxYE6JYMtcC4P8baoDZSsmpQYBShwBNgBdoA+5ULDM6TV0QHXqVO21TlwGmO9dCVpwuYkImvCt172P9LkN0CpntaHkC4hq0SJomesRA6haH1qCRY4p21SpRKN0rxdipdd0B+Cx9hVOqg3mbh7BNa8vMBb0Qp2y06ja26rwwVkjJRCcxQdCnTPIduSQBL9/APZo4+WqoTogCCCUiwVk6LGsQlODP4PAUUB3d6SqBrE8neBEJDhHyqhMMyDCRuncns6ATBE43XyctQKbkuJp0/UZGJRGRl+sZ3CnKlO3XpMXDLO+uqAAbpR9HVQGAgwzHwYdtiO80lCByVeGYBYiFdRFUnRhr/UBhFkencpiPaqxmvnTaj24z+5L8mQP8le8QNVhdMA2ACX21XDR5kywLbnsfdCYQd3X1DbbzPJGDU8yOtJFFHRwQhY/UU1xjwBtWLwsN6hHLat0WmCimNKzU5KM3LENaFRtKOuZsEddzWy5DrVvA5KXRmbYo6pJbt7R4RgV/bqqmtoFo3RXsh/ndWSCTLfVCWFssQ1g32dHHjH7Ps6/j/MG8P+N8yo+V+CmBzT0WqVSs8RpxUAm5ehLdCdBmVJbBmuRtpFAq5rlul3PMAOU5jt/ho186b6k49lrGnmjX48SvaqyeHsAY1Of71SH7Yl+UhN4P+c5ZU54Y7S69JjC1v4E43JquFzZGcnm4v6WrzJ60Ev2Z/dEAPVW50p/1mfANerf3qj/AqA/zk/id4eHh9OL+vL//gldP52e3+P1Lw==);lineShape=1;strokeColor=default;" vertex="1" parent="1">
          <mxGeometry x="72.90016840095609" y="300.27184238325435" width="40.48404702223661" height="38.7002790233139" as="geometry" />
        </mxCell>
        <mxCell id="j-bRBase9HprXpClxs5v-41" value="" style="shape=stencil(7VrLbhw3EPyavRIkm8+z4/yHAcuREEUyZOX19ylmw81McadWAnLwITdZZolkP6qrm3OyD9/uP329O0X/7fXl+ee73x8+v96f7IdTjA9P93cvD6/46WQfT/bhy/PL3U8vz78+fT7/++unsXL89Mvzb+Mv/HHGWXWpDFT0f55/E12Pf//ix/P6x4enzfqUXPK79cGlfLw+B+f3671LTayv6/p/fnF1famuNl6fjtfX4kqk82c7Xt/M+b5bn1ysYn1zYX/+5ko4Xt8D2z9gA2Ggbi7ZHtA1ILm6P1HMLqgjRRf2V7YofdDw9/Y2teK8MGqtLhgDWhde7ld2iCosEMV1D0iuFB13gQGmdvCu0pGaNGtprtGRuvPCcTU7v+yg7gBASftYRbAosy7JD0AUO+DSqTIgiB2yuZIXgNghFVeXHaIwa6ozfzdWyupIiT2dgjNBYYilQIA4/8RRtJa+AMQOcFzbp6jpnG7JtcCXVrQNmulxOZLgsY6E3PNqyvNW1wG49B6QozNBAgD0fbQiB5sIjeA914ZiroscXc9UvSsKkJ3tzwSqUuUEdJ/28d2CCwoQFgDiUSV1cmF/B9BtEq5GUsfMgKIAnrmyXYjkKIOoQAyACFfkaEoMqCqpw+TeDUCZ1eC4zmZNAoCy7BMDFPXFi1+3ALFDKM7IrHVG/PUdYJM9GyO6VFUcNXDPAq1LK4Fce2GACT/A06ktRxI7gCvTcukmQqM0JiYAqtIOkDOJAaoqNr9Ea52eOUrRVhhwQyNyeDctmEDfxoAqCgSiv1NO92mG64AyjTgB3csCgStSeEMGqrp7BWAuv+9IFzO88dIoSu8za68aYEzGAEg/BNZwvbmozOqnTN0ATIk+uMn40lJWRm7IhuDX+ofENxynWhSwd6RLR0kCYO/YGKCaxMHe5IcwZeARexPNAKDEBrpaaiAAUOI7GJMAEsgLT4fA4T24VSmspereCCUWxkgoVXTbLGebetVVui1Ub7KY9KlCNsoni2QLiGzawE9pcx2AHm5P3BUWVS7IsyBvAEqohzpPvAEo3Y1Wm5qNcQexw1ANi5WSAkSeN4wJhI5sW/zchJVwpEY7FJfFpaNfIrtNCjmykl90iZIZoSxH6tP31wFpMtYmO5UfwsKS2EFpXEQrhQYuXQSH9WXuA9qU6WaLSpciY/LbJi6UTuqLvtVNKy7MFoIJBH/BpMTySJ4sLBQWMTnSUwEKC2IAZOC9FwCr9uXSKlItXSExFUdos9tCAFXQZOozbDaOU0IslwVgsmctyWVKT0gCNZ5IS2OStdT7X3J/x5JbHek/kNxFMvf3KLk7z/cAyGokExYrNT1nLVNrvhGQO49+e5OTrhyYl3qXoQGNXioDlKg3z7O0zTzuSDdQ33AL0Vni9svM/Drfc00crY8IjWV+iARRCvQyPd/WUJUNS/mps085qldcQnUrto6IapRTWdQrujIATTV7npUVjqSm42O2t0+GMbG8MT1sC0BYacwnAwPk40/h1mrsoBLaFrPazKcjyqB6BU5QZgWx+j2gdClYAaD2bcy6NXVT85MvT5FHAGoccpQKt3ZmMbCOctyITTqSacctsz0ATPFk5eIwdlC0d2HFzaWVTEc+kELEn1AcYInLz3iEE46zyKxnTc7FDJ6m99k0yfz6HVCk9ylqOlrz0qpbkE8z0KAkAyxI5i4XxbkFqHf7MIe8bzwSopUcB0OrF4HxrJLZrFKZVJb2Q+wr7RPn49MFoFO0Zla58IwK79L43QQANW6A0DB65uvScUj5TE/G+ul+vM/SDjdS1JZ38ir7yvGivASfmhPhSDRYikn2ZDnxUDbeILLIc6KhJVQ+dH4nHx9pqGeQwp+BxDLf/Y50NOm38SWL1tH0Fhp0f18bF/aQpLxCkSWVG7x8C0Vhr9ST3fqog9vKSZ1HgUFVuksToTiE5QIqkGyZNwAgub6yTB87KJleuLkPmgFQTWgq0+WD3ag11IRKETAUKPtMJacZ96xVdm9jPX0UoO9rLA7z/Ajm6PyZWF5+XjLeMvbrbVbfI4ct69UI+r0f7N1ejx/+/Trwy8Pj4/njwu3/89eE+NX5S0T7+Bc=);lineShape=1;strokeColor=default;" vertex="1" parent="1">
          <mxGeometry x="70.08792034759153" y="284.2761696727555" width="43.084811263676784" height="54.70689108820011" as="geometry" />
        </mxCell>
        <mxCell id="j-bRBase9HprXpClxs5v-42" value="" style="shape=stencil(lVfZbttADPwavxK75J7PafofAeLURt04cNzr70vVWEWkpSn6JsszWl5Dcnfy8H54etvvOLxfL+ev+5/H5+thJ592zMfXw/5yvOrTTh538vByvuy/XM7fX59vv9+eJuT09O38Y/rCrxsvU5WJxOH37UWnUP6++HyDn46vC3isVCw+UWvbeK7Uo8EzxbCNl0otG3wYBq7iU6GWHD6kbXxJxNHjgT21U2oGL9SBPT0QW/tjpFoBQQNabICYuIMMhNniOQWRGvChC9VuCCVQiduEFqnbE6pQAU6URoUNoQVqvE3IzZddK/CEVClVW6eVGBReSlRsYXRNJXBag5itD4tIr9dqo2Rz3Rt1kDpRsTlCGeW1TtCw28x1Hp9YJzBlm7nWKIK4KkEcQYhBgatJ0dXGHIZ1QvIKrYkE1Ia2ALESrREqIqnmbG2UPkS1TpBRCUsCyLR2GenepIjaUvNtT50OINM5+ExrWCMIa9ZytU43HqrdIiQnubnXbpnkSkOLL6GwtjtCGZlZJ2Q/TFRADRHYO62i7khA/U6ifShknVAoO8XNnWervNkREp5w7Ltx61RBWJXgRkrDM3c6wYZVpxjsS2n0iJmQRxi2opRsr6wMq3WdAJzO89QcBB0ZAk4o2rbsHNVPdHCCGuA2DZ0xGQwIFWS1mhbsdFUBudGOh1xWPViTdLsS1IzbWEYWBOSDBB8lXQAZREnXo+4IqgewYHWK7IMUUFSHgwu8ALwWpp0momkG9shoKDM+wDapLc72MPWIQZLjmJaL+CD5Bz96poyBmrhb9vTEBuKjeLfFaI3A77u9KmrPBtM5+nxF3S4Bnn2+dB8uAJ/G+v6xhVEAEvjP+8s/4frwcVV6OZ5Ot5vW8n9/tdJXt2uZPP4B);lineShape=1;strokeColor=default;" vertex="1" parent="1">
          <mxGeometry x="86.24290076440639" y="281.01865125338213" width="29.065515649006556" height="18.416641874599918" as="geometry" />
        </mxCell>
        <mxCell id="j-bRBase9HprXpClxs5v-43" value="" style="shape=stencil(lVjLctswDPwaXzEkwec5Tf8jM3EaT9M44zh9/H2heqiKgLSxb46ClQACuwC447v354e3/S649/Pp+H3/6/B4ft7xl10Ih9fn/elwll87vt/x3dPxtP92On68Pl7+fnuYLKdfP44/pzf8vuBCpJQnVHB/Lk8chfLvwdeL/cvhdWHPnlxV9hyAfaHE2j5v28dAJdzw/liIyw3+J6YWlb1nYN8o6Hid27bP8n5jH4F9pajPJ7Vt+8Lk2mAfKIDzKYWiG+wzVfT+ps/T+/7FVUD1FMYAfKYIPKpMccxAYOIEAJlcGgDsqICc1UppjFmqsNZtQJP3jYAY+zGsA6RKxyzERs0DQKQ4xpDkCXIpUfEjoGKXMpWRyNlTBZXahJljHvKsBeuA2k99BrSemXWAcGd0qeBiFUAegy6JGJ1S63mdAfMrVgHezfTtCKnHjIOoY6prgQwSgFLIJokA5Sq14ceoJfkNJKI2nWpJfkMcZapj9UnyIwhaVEPHUHo9rstYI28BIHNZZN0ZABDK5HslzIAKlVg6iW8awADAsSv1ApDBsYqUql4lufcgcaLtlTUgAoBIaSgakBHA6XYigIb6cy/+Wb0dbnCBYtMfQNrqtdqLfQJscJRNAMifuX0vswwCNvyfdBAkWcYJRR1poCADrv93YR9AvN5wWZQfUDOY9yfYSGxRp56RdZ4ZIqeekXUi94pfxIuaQtaKLfYZ+FN0D5F88U32tWvZlf5ULFzkDSNRX05GhVqfHbbylbQ90napB+NPA+cv9WYVBfhv67n1iK7kS4VTxRofK8iv5XshD/UhK43OXSKv1KsE233o7FvYJ+C/EdyJj7cI9Cf2PvTyXTqEm1Iy40cGDFihvABQY2U9aQrAg5qL3jTWCNtekio1AIfXuqZowHA4kD0tq6ADnFeKFYoAiSNrjk6c71za2lrURCSDIVqkBKB235rgtCwOKDGSbQ/NK5PHaoAvcJQVQBxPqUR4PyCAPOpp8X183vyC2otKXw+3TkkNaTkQo4HfaT7IqtYAgaq5U0hz110HFO2SFDyaTCWvKugoXwCqUQO18Qtc+068DhDdHhnHHqqG8KGotR/v2IX1BuxLn5XWAU7H4AMc1XLVa3+D66nsx6r28Khm744SHE3t3VSCimHvvhIcvezdWoKjtb27i5DM9m4w4tHF3D1i/6deGPX7UaMyrTDC0U7snY4XbcnTrBCUvQP5lU7bxvrh3nq37NWsFuBot2aPGGb98VSRPyZeD3umPU/Xh9Ur8+XgKGXrwcHV4Na77s/t5cf/i/Wnw8vL5V5++X99ES+PLpf4fP8X);lineShape=1;strokeColor=default;" vertex="1" parent="1">
          <mxGeometry x="82.55338138968796" y="260.80529168697853" width="56.38373286039496" height="90.05575128987584" as="geometry" />
        </mxCell>
        <mxCell id="j-bRBase9HprXpClxs5v-44" value="" style="shape=stencil(lZzZkuS2EUW/pl8Z2JdnWf4PRWjk6fB4RjEaefl7A26DRd5kHXa/9ZJZBQK53LyZ4Ev86Y/Pv/z+6SW4P358//b3T/96/fXH55f4l5cQXr9+/vT99cf46SX+/BJ/+u3b909/+/7tz6+/vv3++y9Tcv70j2//nJ/w7ze9vMU4lYL7z9sf0tb8//7w1zfxL69fT+I5ncTb5hOJ13IS92HrkeR7P8v3zcHnl23+6yA/vxGWX7Z0lo9hi43kcz3Lt7UBT+RLO+9m2kIm+XpeT+pbZPnz9ue0uYDy+SzftoT7I/IlbPkjn1/KFnF/xB5K3wrYw5A/72e9W8//jXeXz5urKH+2/lq3gOtv5+et/U7+bM9trL+TfD+vpw2HK8/l6+bO62l1i/C8dauyHraHpufb+vK4S3nvNtdUocOCvFeL6G7L4JE+6iN0vwUHCmVzThU6PLNvGhL7ODRwyuB0l3rcApxaiJuXJQ03JoW8paoKDfzGHnQfHwGGF92KI7tCWYu8Vghb6KpQSSFtRR664sHF4QxBFQrYUhyx8+z9vW0Odil5DS9DwcMujWgek1GAJaWyrP+4JHjoEf9z14euYBo5rAUcFOik8+U5UMofz5BUwZFC37ycw4iDFCX9AhEHBQzz8eIbKC6VZM4hL+u6VhjGbBQoCJRmXDQvc7xWGIGxqQJhneq3ZKIGmcbIlc0oJMoOA6yYMEP+MLJrk4OLCB9Hek1NFSgB1a4IbyhQRm/ehPuAuzQyciuqUMA02th1mx9oSQN1ZqMAJz2SuFprWB9xrdCXBx8UIkS+kWS9eWgKZEOh2ywKzzD+nY1ChcQ+V1xVIcLBPQzhAB0afUM01uq2QLuUlssf0Aw50PBgsdaJr+gb8lYMgKOUNbOyIMSEaGYoSFxqEWPrDO4C4RxG75mVzw89vLzyN7TzkmYcgTAzk6zA7oguOhTE40bwpDppKNSztY54TuBkKEhSLBy9+0iK510aWQ+3tS8MeajdCNv3vXQ8FIeU46bCGWtkj9BhKEgGShXD/fyG8zMkTijzoYWOcOxxOz+wV+h7Tfrs4Nr5HOKII2x8gshCXwngqfGddynsYOKZgkSNkFZd90zBnbc1eCwHhsf1c37wnaNG1ZJmVEWegnFdcW5XSGujnykI1hiVHUa+ahI7JyDDBbQFGp9G1rN84QfImhwKW2payekhT0XiLAmjyBPwmenwbEV5AZtnCVpARuao7RT2ZIZJXRMPA+i2l14HeYjAragjZwZVWXPCWD/JJ+VWMgaWgSOlrsqIRpopegrGoYGEi3BnSLXVZhIOnlc1XGdZkO9ZsSD1S8UUO1K20CoV7XlkbIFGlffHaSZg+WIxAhIexZTyN/JZ7eFGPi0m8X37WYLGdD6vATdMvCpEfY8SQeNVgvVkk1gLgutcbXzosJ5c1J7z4rie8Rw2XtF6orJHedWq1/JeueCMlWx2Wt/kLRIT1LR6z0w1VQXJmcmvfbk71EIQnqLpbWA8TCa/7MTTtbxTQJC2BPkrNo0PaYtgn3EnrR7y1JqJWdFxQnseMLLqegKtJyjeSEjDRbe2433yA+403U8qUEa4EW6TqZwHvHjIU/6dx9NFHknyoPRvxFbjgMBJ108sZXCKJ8PasGdtgZJEnsoAPwBuE3lsbGT1F251DXxdjDz1QaLGn4DxzYdVAL9T3iteYvmB3ssHxJtaA4tXDc4sXtRXAnPo2tbjrR9ISRdDJ5uU4uGeYdQ4HrBLYkjhgGHca0cyIKfgVww+OCF8urM+61E8Ov10CCFOWyMBq2SnfGLABGQ6Zn4NLzwTdyJOJua0+nM3ny4dRYfFllO+mIlQp6nBYSpx68kO4hCJnfKH7sYIqi6GKFanLX5mM51GAo+o4kKcTaypN1GPyDxqwBLdbGTEXqM5Jk6wxggi8inGxDhwGAPmoGfcIyA9deF85WOuzRYpgWMcBPuqirOJRXVtB6nMhFR3ZwQfETfx3WFRa7IHxxmTm9zCjO/LfA6TvMmrDmdrTNZ2XD8qJnCrPnkf4nBokQbPOEzyBi2xuMFiLG6h3o28gZI38gaqOqQqLBRmB7RQ22FcHVDeuCC1MmepoPtJse+RHx/xBseBvFJXPAIVgrqhR+pwVt4a/wgJPZjOh3y9KTUV+1PQmaWs4m2aurOlckBqxpbiN/Km1L+RN1RCQCotVs0/3P6Pxt5G8oT1TKpFS1MKPpPKUflG9U5c7nfI/XBek4o62ye35CbVJWO5mFYmleZFnjqpk6prIk/13aQClQopRAVGWyVRPMxJ7S1ia2pSpQrVqHjIVWc10uJ+n1K9SeTJnovBgglbEZOqVuqKWinFUEWZqf+d+XvIE5Vmqfy8hh+v5U2r4EbetCJY3rY68nLoa3nTSsmLa72WN/aZkSqtZrouYz6arSZdP7aCmhYHCan/ug+VP+SxlegvqFiIJ48h7gO1Sp+fzJAC1qDtIh4Snmmm1R0/2GqNWELbVm7EWxO2VRyxzLWt6IjUeY9a/UWsQrpp5YaF7Z/JG9IL55P2SyfvK7znTJbyWFTnDPmu9omfX3USKPHzVm3tlDt5qUY6j1aYeZVREVBB3ZsWDKMkoGsEduDLVx68a4uM3xU6YuKhoJiGmaFu+nfTi29GysRKCw9AdsOZdIzrvRsKJ2BgGQpZgE1hS+06Nj2xJu1SN6adeBzLjE2nisnAO0P+ZI/h0X5FZjwxFaTV3LD4HwoCoErAjD/3VeYTM5bE8+RkOqDzeFXX+xw1IB3YuwbhejOJ2tQ25jQ4u5zA0pHYcT7RhI3msXAagUwS+UjVmcdvxUdbZZcrWuq2m+nBbGKrZw8yxeUjnT7Lbnq1gTtGM33KdHlEvDn/bRRwtiwo4BkKmIH86qDtCnwRcs6v22/ggXcZf3kM5D0DSTK62nfC8VqhmgsgCTviF/cIEt4WvbipkLDwbUFZyXljhJ7BaxCYM/PEY3YtveZcJGH/qoGsc7E2Z8nNRRwcfEvmJlvGcnneqxHjK3f1l5p34V0yKevuBlXTXs4IbQTJRomqd4Mq3zxOejV7zgjT1d2odPuEgXAO8xZYUQVCWNmM1HdOu9lE78c0+DPiRTpqM+uRQjBRo/OUV19M0UGBLhPNG4XmG2hO5+LOYsdBO3sr8gChrvlHgx3mmoiwNPeiO2f2mJQR6gxn5vVUY0yU2YO9jlcxBQUzIt8rs+pZWfWbG7OP2YljYKLRDqd16E2s9E2J4JvwPTsn5qozxUpvqPJ54Y86hl6RbudXRngbK5n9bub+a0BTqia08uRGMYfgEOYWxQ2tYfekmPtZ/I4Ac6/h9h0Eetnq7h0H3sB6lheQPt/RgLNZ4ew2t++AkDnq23dMCCK5fYeFyn9wPfMdHCwvxSTfBiqGXO837/iQNJsYFBaNQrHhO1ay3hSNPPiY1eFDxsCbtbnnO7KL5k6m58FTc6+hobuYaoq59QtxAhRJc3HCq2RJUV3Cmdxk+zhk+UmzNreJkk4VJGT5szY9uaLbKZn3iqvVI6VjjIaHrbOdXccGo141SDce8sF3NN2Ijx8er4P67fXLl7e3SR3/r6+PGn96e/VU/Pm/);lineShape=1;strokeColor=#FF0000;" vertex="1" parent="1">
          <mxGeometry x="-15.905478274978691" y="82.62111510057775" width="496.8969526365553" height="138.47695917516307" as="geometry" />
        </mxCell>
        <mxCell id="j-bRBase9HprXpClxs5v-45" value="" style="shape=stencil(7VrJblw3EPyauRLcl7Pj/IcBy5EQRTJkOcvfp5gB6cfivFIc5OjbaMQakr1Wd/MS3n25//D57uLtl9eX51/v/nj4+Hp/CT9dvH94ur97eXjFp0t4fwnvPj2/3P3y8vz16eP1788f+sr+6bfn3/sv/HnFuWRK6Chv/7p+47MJ7Z9vfr4CHh+ejoBmWloB1fh4DsDvubIAgjdF7BDi+L0JaPJIMZiYF0AsxgtA8ibVBZCScfUckK0JbgFkZ6oXAFzar4Bsij0HFGvceocMQQcBiMauUipe7+BMKLyDkhKORDvkaJoA5GpsWwHWVGEaOZm8AlI2WQGCCXYFeNOKADhj10vHJu+QGisOthSEWGE5hXYIxidpfJH8oZkobClWtlZ4SBY7RKhpvUOwJgmxxu1I8GkrLt0dctVDCMPLbwOSiasDhWqyEwA3ZDLFmkwQl/bFODIN6CELACxnFSuMJYgg4CpHPjhQEWJFbCVbKkX6tPPGrR5Xo6lCD83kNWg0OzR5c30dUW6uhyWJ9YW9p0Fr4gJ5uPtc38YvnKxPjtdH5f8cYLC+iPOkYWOH9U24WuLfd9ZKR4gm5W0DYXQI2tv6qtzgxgWS8IIZeg7rvTi/H8HwoOAifMBvCq4mCIH6kSXn+mKqUJjnyIX1QcqTokQLMoGkoZ3pYFU6WGb9wiEVFUHaX9lUgb6k/ZA8kdadkOfGdJDVo7Afy9wrFxmyprUfUr46vzeBKIIbEjuRDyXLnm9VRMSFiSEUbdBuoxRJ0iKQUU9HijKGIr1T3kCiKSrhJ5M8A1Qq67SoMMALqyiBzRQAp6hdYzvqAKEHmL1dA0ua6fM2YOOCACjPbzDkbYcs7tAS+w4AVkipNuYgyY58e3bpsHpzzPJIpfIdwKxUOAVl96seQIuUf8I0yirWoDM4/KvQDuDkylont5xcsAz+eRtgTV7NG1HWi5gEQk3W2tOW9jiiLYhTQQEsW6srMsyHYuIa98DdZF6Oo3SagCDjEvgsZWYHualABkNYxQrjUpkzc9WMXKfK8sZXxhdCzTAb61lEKjXgxoHswssbhMDO4DW7C7MimLadZb0JNeetVlPeExrzBVi7VbYNBk8xJsugFOPWKLAysMYt7CEmOFUNlsFYJkBznl5vrgCQjKTcrXFGLElqOm3+WbJMP9ihVgao/gsAVNGi9FJHwqV5hzK+OQNQwwbRX2WTXQ8doMQ6eyHH8lEdKQ/bPACk4tIoJg4AWe4k7oNBD0GJdQekkS5Oj0SKi6PsPr30RqFltxBiJU0H2RKK03IOAJUcYBrebgB1h8plzxtlQJxVxQGQ1B3gopb1oPLVDRdF4HljB/KHLBMcAJnEWmQjGQDq8ACgiDfESoQPHmeVA5XN46rk0bAljhpVNjwAYNMoMsfBH9hai2ZXaRTMBz2okuz7AYGL7t4pVmL1XBXnPOrGM/5GeTp7GVs7a6a0W+SRQBQisSUnMxDICZl31K25Tn+IeBfZewK/a9QitbpXkrna6O0BYRq9W7LqwWk99PbNegc3w8IZgPoNUQYNcNS0qkG32/w2fLK6ixyYIUbpz2H2CqbhjQ7lmd2lVaLNeOUJjitKp2vWODPNBETdEMtbnZF1y9Oyc/o5iroN2Hp60LqK22DAVMl0qxBH6rM1OhKiqmo7z7b6dB03AsLtunvr2wZNS6rddmjS12rh/IkoqHhM81ttkmUIa5tYke+KUNyhl33s+gjN9S2oJ6Nzem/iZAZUNZCo29Qmy3xYtw56P5JS9SxrD4Comjhbzx0AVej2nsx+JN0Q5GyV9dQgcimddE8meDbXVHW3wQ81HcpQxQ+/Ff/HFC08yO0D7iibOJn7Db3OFXrbem+ICmpW1cbg+MBiFIV220SyJPmOAQAui6us35AL/Kq16mXccxuxqknSTyiBWEyzMnbXbd6je3v/YWC4zat+DAyX9T8Ghv/vwJAqvBYkw9vqhNpGR+PfOUwNMj0hSBQqObP0GAReOlGucprkGreqUxu0/rZIt3Y7aiNlQ/3pBdVGQbZgemFDz0eyru+2dnsP37rTS29m4Kqy5HT8ogWmpRTXy7+6Ad7oRvjtSIomOC5eeomoZj2BU2B/RaOaPIW71W/ooZMCIqlWjm7yNr+F3FTSRJL3xGqLnEsgy3MlbyX3z22UpBMQZb+jeG5JwoFUWi7bVB9iyGoMmLkwh0+rSwPA1MIP3Z8dqW0dd6/usM2rSpKZMxd+SIojyacSgas8aEbNVmCtbWOQavKRNsqZiu5sWRZrbLKk6mUmTYg1Y0NspQZDSNJaXeWeft9Tsc6wxaUmG1Vue1MCgHotCACNrHrXQ93Bb0fSEygAyhb5VFbvgNXjkJOa3oGIJwDKgXBpYrad62op0XzV6xfAXXEbQI2sXORg3GfASkqRC9X+XknZUtomslmWC9//mvxtAD58e7z+6eHx8fr2/fh/fuyOr64P5cP7vwE=);lineShape=1;strokeColor=#FF0000;" vertex="1" parent="1">
          <mxGeometry x="-89.41041120788918" y="69.21605273154228" width="77.08625576267991" height="83.94482184509388" as="geometry" />
        </mxCell>
        <mxCell id="j-bRBase9HprXpClxs5v-46" value="" style="shape=stencil(lVhJbhsxEHyNrg3uy9lx/mHAcixEsQzZ2X6fYgSOh01NCb5p6Zrprt6K3Pm7t+eH1/3Ombf38+n7/vfh8f1557/snDu8PO/Ph3d82vn7nb97Op33386nny+Pl++vD82yffpx+tWe8OeCy0VSbChn/l5+CZLt/x++XuyPh5e1vZUclL3z2/YpSnLK3udt+wh/9PNrJPZG2yexdds+ODF5sC9i3ba9d1LTYG+N5LINgL9FAbxUwqiFA3YEZBqChUtjyM6IJy7BY+NHgBcXSJLFjRyBpEJeUPrTuj1YcyxkK8aMgCSRAZL4ERCsJEOz4OoISLSOfJAwchRdf+f1QkJhj2+IeAOppJjFjIWRjBTiUsqSx9ZMqCTiUk4TIPZivJ43L2VszoQYSHeWInkMGk4GEkON4sbEJRQLYanW3l0dgImTWDcYo4sJPLB2qKlPoGUEWNpw1emoQVwiQYCmMDZESWIITXieUQAwTcZqC3F0qdo+CK8XU5U41ndFxZNiSk7s6FLlYykGPSmRy0TyEFF9VgPorHcSywRgb7A9xBUgs+1jJlqreOJSqHp91tIX5BZAzVYADMl0A1SdB0eCBiCroDFcedBBJS7epLVqAH2D64WwArAWjcvKXAECYSnG3l8rANMxcQlxxRLbWZjuaaKVje+4/L1KXGQNlKbEFfEsaEgdVUtVDA/aTx0XWQyhc7ICFBYDtMlYGqv5vFVMeWrqwstV01SpeEBDKEUGXitZiwD4CeCIS61Hp1kZeVPHcfG2YmIsmSnVSD6JAbRa9YbIp/GnAXmi1dPVnqCM1QoydJJh86ugC9QGyUPO3YEFECQSWoubAJbWd9vjSp7wjYK1rHZWBq0kcRAbqjSyoyesxslIK3hjeWhBK8Fk6JzJoYvClYhjQhSyM45jI92YlUHvXUjdzPau6wtnUd+VHss8zolK38euua7ryqrFdGtaBjATwNNBFnQafKEtjeePhYFTViFpm3QxznVsrVt9oIGHlg2xTsfqGFoJQUUvUJxz2YCx05HM8ruDFsGYAeSEHclQFFY1J1UZflJ73KFQ9MRz/Qy4NVLz2DeG6qrWZ0HZs12LSZIme+JPng4Ny+69nmGj9YXpB8zr9rbLlSVh/JiEBGt7JiMx6ZQqtHRIwN7rfLF7EtgHp+zZqa09f/TfU83Z/FctT3cH+Im6Pll+ka861TPjx/RN9GHPbmFQP+FTl4ufvYy8aY8PHzefT4fj8XJxuv5f35Tip8stq7//Bw==);lineShape=1;strokeColor=#FF0000;" vertex="1" parent="1">
          <mxGeometry x="206.4450071422675" y="270.5783046374813" width="50.012769420799486" height="82.222078298621" as="geometry" />
        </mxCell>
        <mxCell id="j-bRBase9HprXpClxs5v-47" value="" style="shape=stencil(lVZdU9wwDPw1edXYlizbz0D/BzMcvUyvd8xx5ePfV2kmARmylLcQdnPa1VrWwFeP+9uH3ZDC4+V8+rV7Hu8u+4Gvh5TG4353Hi/2NPDNwFf3p/Pu5/n053g3//1wOyGnp9+np+kLLzOvJtI4sVJ4nd+0Rpr+vfkxEw7j8R1BA5XqCYmqbhOEe0IVSmWbkKkkh5cKK0rE7PGRKm/jA3FzeGbKGeGDxychlW18JCkOH5UCqEf6ekwugFfK4sunFEE1TOLtN/2o+kol9HjkPpPmrp4I3EyFauzkZiCXLW/++zFTA4I5UdS+XzkAgsXlQyAESW7UfIctcQURlNR7KmsXPyeYBp/pzIuqz7tWKPhU5EwRiI4m2tuaBfatUPRtywGaxMQeL5ZzUFBYhsjaBIXft1PpLbUKFcQiLDNhjVGlilKxzKgVH6gBvDXA+ylLbrf8L/2xbBXgtc/casBWgkJXPyzfItqNFbO/fRMP6rdbgP1UN0IBBFVK3TXAUHEtvUOW0AAOWYvEPnI5wpusCYnPnB2yADLadJlUK6HBYdps+HauCpyOdlkXP7vKF+M9fDg4RRdZWz/BPtm2MzDoXCv9PJ1ag1RnUk+wlUJB+KaNoyOYBnRntv6SMqdRSVWXYfh2/PGBmxYp7+sXi9R/bF728La33Y+Hw7z2vf9/v+fZq3lH5Ju/);lineShape=1;strokeColor=#FF0000;" vertex="1" parent="1">
          <mxGeometry x="212.24777991607743" y="348.1663198256997" width="14.248237757401284" height="8.330187558648959" as="geometry" />
        </mxCell>
        <mxCell id="j-bRBase9HprXpClxs5v-48" value="" style="shape=stencil(lVhJchsxDHyNriiQILicHecfrrIcq+JYLlnZfh8wKkoiRtOJb9IMm8TSaGC4kbv354e37Sby+/Gw/7r9uXs8Pm/k0ybG3evz9rA72q+N3G/k7ml/2H457L+/Pp7+vz30lf3Xt/2PvsOvE06VRDsq8u/TkyAk9e+TzyfAy+71CpAS5eQBqa0DpJA6QKKU1wGxUIsTIAZicEIUYpkBhQoAhEo8Oy2ZEgNAIuYJkDJxBIBAWieABToEAGAqc5RypKrwhDg7XZQYJC7k8XoAaiABJsVKcc5DVWoCM93yDCiUQVhTo+oAlSoA5EAtzIAGyVeiJ58BclkHVKYqHqAgSv118z4EkAd7XdwJTAFwqQrFma1Zx5PbTmfvgyYqKKyVZM5DEsog07osIGMr8CFZQc7ks6KtIKxSB3POqmE6Ak4QHuVypUsVZNpq2pHPahD50HWOPSCBKIU48joAmEpW0sGVw3iwphl53j+TInuYdA5RGllZW+/qWaAOm/11tidQRhImQ0PHeoZy0ftGcusZ7W9ytViPGFF8GfDodWttxHc2KohAjaS4eCKlsPXFlSVm9FnaLnzI2J4wE7pCXTF/l3xG9ix0qBcMIrT6BISzHK8xqBYPgC7HISIXF2BIg6dcxZS2Nj6XWMElw96ecwhW9/cUQkLd7Z+7U8T2RN/NTANQSQo1desDiqfeKGG0/wfX98GPnb8J5EsSBdcq4RCV4lDYC38KkHSNFOe+Z0WBBpa8aDJmUQIWlTT66NUsK2icSH7+sOaM2lKL1GbOaSNGgEJ1djo32LsDs5+vSx173D6ijrCf8xDh5NjYa2lrY+JeGwTLXAlXVq7Nmql85AibZp1YNMwmm5fTAoDky6iwPAF9VXSyzYlo/xA89fRrOvh1O67ELg9nSbvtgh9+jb8C1rPvyX0aBoq6YJ5xNQKuWn9x3A7wS3AxA2oYEntbMfxXWgqQddbz5/j3joY6gn07uKGlwUm8DzWuiwfYo8wA54KOnKyRVH1PY7B/SuOC4qLxgiKqo+VdxjQ052um6IaK0eRury8LyaaEekL16wX2TFPbOKfYmhbyt3nlUmhP5nEzcRkbC/C3r/czUQD5NXvqbA/+DLL1yymwAELo8lsxwBqwjPk7rAhVTrNv+wGP7h++VvsPgP243OI97V5eTpeA1+/9rZ89Ot0Yyv0f);lineShape=1;strokeColor=#FF0000;" vertex="1" parent="1">
          <mxGeometry x="265.6676855856722" y="312.6189870969165" width="39.717829212997" height="33.95085899579249" as="geometry" />
        </mxCell>
        <mxCell id="j-bRBase9HprXpClxs5v-49" value="" style="shape=stencil(7VnLbhsxDPwaXwk9Kemcpv8RIE5jNI0DJ+nj7ztbQ5sVdz1Be+ohNz84K1EcDkntLl4939887XfBPb+cjl/3Pw63L/e7+GkXwuHxfn86vODTLl7v4tXd8bT/cjq+Pt6evz/dTJbTp2/H79MTfp5xKtFPoOB+nX9wEsufHz6fzR8OjwtzH619FOcv2+NxLQ/2VVwj9vjbDfY+S3CXATGKjgtgR1EJoEhuowdeClkhub6BGdCkVALwomkAJHiVKSCGAZCLuEB8qNZpVcnslFL/uwNKlkgAiEMd41yjhEQAQfLodG1SI2FSkRIHQMMmSeC8lzoGrmGTjKvgXhkBTRLxoUnz1p65UKXoyFXnOn03AUXU2QUaIYZKqtZeicd5w96TbEuiak80E4dTp/FsPwdxm3Y9sWZ7pQeKXDaUyNIYraWOnAOFGstMK16w92Q/WZzZD7SFnCcIYcSucDXNomPAquNyOvs357EXTzyOeaUUnipFUgljluXAz0htkFOkpIBUOSPAeARxukRJYxig2InIY0FWjbxAZNgpIUxOLYDVhBakmpoQaaRB/GRqgpdATgmZmMbAZde92gZA20Zyq+uCeQmgozyCS4k53brcLtjK9HQhh4ui4EnkpiVMhjrxhBsAhGQBjXldJRqA70m4DSgSxuKM4NMtZZujANBQJynFAlj5hwppsz5ktiXQtdpTKqTWAmDINFVzxr4gcczRWt8DmNqDJKwsDkiwlbiyrgrHarekvPxn2yQBQNmqK71XTo0ibb0ltkJdAQotEFNSrwCs5E4diElqSB+XjTbmA6jxDiAZeoN83GkjTKB34imqRjUC7cMmNXYWENiWsni1AEqNtGodPC1yoLcPFuBY4EJv1ZZSyXM6rnKaVcV/AQST04629FOYRjEu8+y0DUDRHIVsamdYi76qWWhnAokD0sXoUpq70m1AtlKJCZO2M3MvMgMyVb7ibFHESKok43AmZawPqdB2JmO0Ms0GmjTSzqxHXIV4sj7U2xQt87ltd7oYN40upV4ALs2TblUUWRw+5snwMU/+3/MkKOpNNW90CPBqV4A8FXZtgyQw1ZxTDhxq5iaJ3wBGlAAzgeY+bW0DQt/xQowqW2HewOK+rbEVvJ3eEm8wkMl5PKWIQJNEC6s44JfKjtXZRs832iT5ZCXbR1oUkLlGvLpP2xuyHZLSwuztAWlfbtPc2QDkTpIL5uZOIlFCuD49vd1Rs5FwNaRGGlvXh7k5tH3OuGBuNAtHxYpMF4S3+/hGnh7s+Ov6XckFgQvBmLMuNtkazLUhr98lsLv+v3z18K45Pry95bg7PDycX5Is/7dvRfDT+Y1KvP4N);lineShape=1;strokeColor=#FF0000;" vertex="1" parent="1">
          <mxGeometry x="325.05731940307646" y="307.84868117674864" width="40.05490408901778" height="49.97842226421608" as="geometry" />
        </mxCell>
        <mxCell id="j-bRBase9HprXpClxs5v-50" value="" style="shape=stencil(7VrLbhw5DPyauQqSKOpxzib/ESDOehDHDhwnu/n7lHagdovqriDHBXIbj7tGokgWi1Rf5M3X+/df7i7Rf315fvp098/1w8v9Rf66xHh9vL97vr7g00XeXuTNx6fnu7+fn749frj9/eV9f7J/+vz0vf/CvzdcSC76jor+x+2blFwN/33z7gZ4uD7uAcGlOAOiS+0cUJcF1Hk9fz67ND+vwTXy++pKmZ7P3sVy/nxxtc7PV9fIfoJ3fja4iGuVAKLLYQZUJ2RHASbMK1SYLARQxwY2QHKZnFHE75kVsvNkhbgFwQ5Q2QrFqQGoE08BReZTUqfEDwD4GZCTK2wFtTZoG74/A2SdAXAcyYUDQP7llmY/qLrA/JBdSDNA+ArZZZM+0Sn3Q8g235R7ui4JSmOpujRHq3pXEwG0gy0xygBg3VImWxLvJC+nRFYAwMaSDN45BgQXFk9H4gesoHMs5Tho4QxQZkBBlrMtRZtANdJjFYT3TK2dNUg+SHPeW0AgGZewY8Ma4pTYkMTSTMlOiA2oZsGUhzZ+4gyQjB/ge7alNDhiF3yBOA421NkPOAbPTklsBUJ0ZWZDdHFmjSijAJz5wc+AwMO7rzAnkAwqPH4+O52f9yNUjou6HwXw9flIElpRCowBTphoqDY9ZTDzsSgJrswcBh0UyQJI3jbHXSgjsI4BiGzjM9TgTAEmjISnM8qlcTLyNRMnABDnVIAbhXgBAMvDaRDtMaCNQ9yxJIuLgmNNFqAkd0APdktKWbJ6K8ZQ0yM51roanbkgrkOr7QCZBF/bBPAOwEp0y5b0XvPjDGDSDQDPtlRsvilnmFadLiskEksNoWFoVSlxA1AMoNB8AMCkKFiB6cMVkD3tldYtgRYYTXaj5+BDSgXm6WpZI0NmMBuKVQ0AVJJxPTSWFZgCbVvJ39nA+qWmi/KR0RucAYLYY2UFtKXR4e0cR49VLVUiNFhTCYAYjZt5tOoBkQUGyFaMaaKCEp5OBiA8vOuInN0K9JQWudfZmwO0LKfEbGhWH3Y/0Gbd2z11VzPPNVtGezCRmgVAMkktVKjjXMuaEGxLvw1YCkSutIz2EmRWKK4Ro1HkyroCL6N5AdCxTLZ1FwBWICAFLJNV2sPh35aNK81REF3w9pQYfUMlmnkAHJeJ0dpsO9NLEANUy5UJaU4cp0tSJ0/JFUXTFDnZlOkZwPTSMQ6xfwxQO4wK4DYGiLYqojthA4RUbbSGSKkv6QLwHJBt8KHhSGxLZWjCDdDobAk26Bx8UOtMVqZVS3u+QlsSKNCMAyDPni5bG3hmQ51XqIEqXZySGRbXRoe/aL7NlhqXM31EMQN2JeMYIVYb97pHjOjjq7m0N6HUF7Ol71poRVln3nUbBp0BDJO9suef2emf2akF/N9mp3Fw707DMTENgG0IKi1yIAHTjfbbCmaD2IyrQu901uksVB3ToXHRxmgRaMaVodg2wFYnjwGQ/2oBlAS8PVY0IWyGFcqYJ+1sYANjFH6dQ6NzK+uol2upRnVrPnAbu1mT0fBsccGHDsG2rsXTfn1pZ/rkkjjZL3MZP9qVY5fZJjHx0fLW++/UIb2qBFuYoaOnbAEP+5nxhKuSoPZCt2+JsAXUpmngJNHkB8DIGFE6yw2LjBE+sOuzYbOlQq9bwyInIWxYHHWAuXTwtDXpNiy3FPTaO49T3wAyCvCpH+ZCAjXHxgdhmZkAwFQMAGKimw9ZQrKddwcQJfb7r0/8GoAPr29rfLw+PNxe9tj/377dga9ub4bI258=);lineShape=1;strokeColor=#FF0000;" vertex="1" parent="1">
          <mxGeometry x="369.1595427501079" y="303.304059738226" width="90.69243916801588" height="38.35757344130661" as="geometry" />
        </mxCell>
        <mxCell id="j-bRBase9HprXpClxs5v-51" value="" style="shape=stencil(lVjZctswDPwav2JI8H5O0//ITJzaU9fOOE6Pvy9Ula4ASpvpmyxzSVy7ALULD2+Hp9f9jt3b7Xr5uv9xfL4dduHTjvl4Puyvx5s87cLjLjy8XK77L9fL+/l5/v36NK2cnr5dvk87/JxxMVAME4rdr/lN8eT5z5vPM+B0PC8BjXJVgByplm1AStSKBvh+5iogJyqsAKmRc9uAEig4DcgUPAA0alkBYiXO24AaKTQFCPKmAkChpAG+UgQnNE9OhzUwNeB0ZWIdpcjdq3Wn8xAlBzOdG3kdpYSjlJm8yXTuW2yVBusTJJUN1JKkKekoVU8MMi0xKdrpmqmlbYBEnaMCtAh94Gij1DJFkDifKRtAoQiclhg6u74hhpJP1qAGapW7uQuP/8Zg3QFyOkJV6NS217ueofv62CVkY73T9pQKBcYNChZgxkR9tP25kgf+ci+YheAFsH+koqk/8QLEJ1PR9SD6WJG2UDYsC92jdX9dF8MFLQsoIO8pmQx4qHaeewDvgAxLdASInBWQ49GkWimgEwanG0NpGaIqrGEgFEPWhJUVstJUhaxPQCaGqmuJAmSlqWrpKAnYL6zR7UOEMYH9B1ZWB/0dWF8SOaDUoiqGZa1L95ZqmaJOFIG/gyoKKwuwR1TX7O9hhQ4q/cF6aQNplAkk08H2DQFkoENBKDAMXqgRhNZZvpijUA7iUNTJd6/WG750ax0l2QL171TspBYSTlvsf3eAZAZ1J5G2pInjS6f2OqAMStGptDU7eh1VPGCL7jjtgYPTr3cDNeUEpI2iJNWMjrVPn+sA1xvSgmwVkK0myx4ZuQMASItnM9gVcuCSUES/DKDB4p7YpccE8QoRNHF38Q4IeNaUwc4MUo0YlF5MVoMXudwinFFVOQIlQq53RlabDFNoeGFbTNKnHBrJ/RDXCDUgDpmbOhUyyVlpld7vkUljr4o9NVsAI0tyrYBOO6sBogoFVJ9EyQzZJeIhnnu3vwNE7XGm//Mi/zFAHv59N3g5nk7zZ4fl//Y7g7yav1GEx98=);lineShape=1;strokeColor=#FF0000;" vertex="1" parent="1">
          <mxGeometry x="204.5180443780614" y="340.07603211702144" width="44.16573098762137" height="14.933546552782218" as="geometry" />
        </mxCell>
        <mxCell id="j-bRBase9HprXpClxs5v-52" value="" style="shape=stencil(lVhJchsxDHyNrihwJ89Z/uEqO7Eqju2yne336YmKEwGjaSU3aYTWEFujwUN693p/83x3iPr69vL05e7H8fbt/pDeH2I8Pt7fvRzf8OmQPhzSu09PL3efX56+Pd6evj/fLJbLp69P35d/+HnCqYy+gKL+Oj0YWer48+Tjyf7h+Hhm3yQ0a68S4r59yNLtC3qWGPYBMUmzgNZE2z4gARANoHYZeR+Qk+RsASqdAEqUrAZQkiQSJPxfsj7kKkMJoEoLFhCkEUALUqzTqUklPrQsw74h8Ty0Lt0C4hAlgB4kVQsoEhN9g3MauVfmdJFeLEClVgKI0m3iQpdUSB6GP1Ko1GkkrtojoeCZDzVJt1EKUWInxbeeeE0cdwExHMZe+YHa/Hk9EG3opfKsfeSEUSVYh7MEUqhdPWGgisj/d/xcnP1g9mOW/dr99PwjSkqWjySQeA60svW30/yOMZlhjX+ZDHiZUVV9xpCySFKGVxRL2vA5M5+7VMcugRbdQBG5Ii2UjjBldEN4mbD8QFU6Si2SyZFQF8k6nREGQkeYS560xyTZywDMEVsZufPSizMmK6BdA+hmjlR2pOBJG1FS5jQALkpphmHvSNH5EOjwBKBbPsoqhTmNeW7fkMZ8spc4JwAAoD4Uz/IAFDJHOqIevA+RAZonjaW8CWsA4CZVjnNQ7AGGo9VMe/rCGyol+gs+NCksrIiSe0OfmdnNgwMMyUxi5I1MGvxIqKXkAUyTLNXavQ+J8NKFfsB84DLJd1yZ9LwLsOWNFh0srFvWWGfYv/IS1gJ2pI2CRgNRwIZbAci8p/8T0KcSPJtAgzQQBoraPKTIRxaI0cnVPpehvRmXrQ+Y04yMAXA9vahPpjWCF8ThCt1333GQq2yTQR68XE1UckO+uSgBwPQSRH2y8yHwam3r+FgBECckcdDowR0Jh+QaPVrWuLK9FS/5Eh3rdSOvCh2hkNzD2nfRK7ve2DjMNHr3mhg56KyONkt6aHPM71H9cBI0zELZA+TN+smyDBJrToLGObUvOz0k2CilOht2b5MpG9ZTFta4ofo4l6G9wlBH9XVy+WVAkOqWpUBLu2zEVWlTMl6+LMHItVFCtbN9BrTreLUlKtRR/MF2GyYeoxiQoqvWzi98uhRrPwql1eg3ByxQjXgQfLstOx1zYGqWv+3Jd/TN7oMXdJID9VsA7Fkr6FSOZ/aRnEe95lkWRjIJ1QsS2CsJ0GbBxX7J1LP6tlmWcEJfOm8gzuxZI6u/gkEBsc1QpSZvzwj7fy9hr9vjw98b30/Hh4fThfH57/6GGI9Ot8vpw28=);lineShape=1;strokeColor=#E6D0DE;" vertex="1" parent="1">
          <mxGeometry x="430.1628693236687" y="244.0713329208843" width="85.83785109411383" height="51.76678326495312" as="geometry" />
        </mxCell>
        <mxCell id="j-bRBase9HprXpClxs5v-53" value="" style="shape=stencil(lVbbbtswDP0avx5Iom587rr/CNB0MZYmRZqu7d+XniE3FGyue3McHlnkuUgD3b0cds/7IbiX6+X8e/82PlwPA/0YQhhPh/1lvMrTQPcD3T2eL/tfl/Pr6WH+/bybKqenp/OfaYX3GVcTCk+o4D7mNzmC/d83P2fAcTzdAGJEKArACT5tAyiBsgZwW2IVEBIq9YAStwE+I3dbykhuG1BRk6qvDDbqCb7qeocctusdgu44MzJZ9aQ5SBXe3E/S68eCYHDGiHqgJOsb+/cF0WmAR6kGZbn11wDTjA3KKDfNLAB7RCI71j1ThDO+kAJ81EPy5hdSBustJQEYLAhJVcsuB1NGqaB4BSixeWMdIERrYdSIYgCi9NBZh+CMpkUIUU+JKwIbTDOc7sE7B2d07bl5ZflEARti8h5BE8GhCXi96z7CKjUqN+zGWt2FEA37LP0tPHuwYZ/Qx0WSuDBmuph3UapDtQYUkbTwSIRiBWTsA+MfAPFC6RKmSXe1PlNvNg8yOpA8ZE2ZraGS25n0VZ+N/YsAkq6nFsnr9dwHnljVYJjlENQ+84RiSE4kX7qA9M1I6wBukrkJSGecmjc2XHqWGDeaFqfnLiHlMmCwIAd9tycJKLIAogJt/cTtbF/n4X9vI98AyMPX5edxPB7nu9Pt//1lSV7NFy26/wQ=);lineShape=1;strokeColor=#E6D0DE;" vertex="1" parent="1">
          <mxGeometry x="495.7006909744491" y="266.9025764789085" width="6.593202002345151" height="5.451115110839737" as="geometry" />
        </mxCell>
        <mxCell id="j-bRBase9HprXpClxs5v-54" value="" style="shape=stencil(rVjLbttADPwaX4ndJfd1TtP/CBCnMZrGgeO+/r5UjZVFWpq2QG+OwhGX5JCc1Y7v3p8f3va7FN7Pp+Pn/ffD4/l5xx92KR1en/enw1l/7fh+x3dPx9P+0+n49fXx8vfbw2Q5/fpy/Da94ccFJ4FqnFAp/Lw8iY2y/H7y8QJ4ObwuAJwosAGkSNy2ASl7D6kRRwBgStUAuFLpGBAMQBolEEMqVK2H3IkTCLpQKAZQNei8DRDNkg261vFkFZDZp7XNUa0CSqSeLECoAA81UGsWkKgXAGg+rVUogyO1SGKDLoUiyFIL1K2HLNQZHImp2xgkUwYeivjCKZe4gjoECtmzNQPySRwHmAEC2aoNJN03UAIxKL3FBq0tysCDRmipFDMxqJtQdfYaAbBPlN3IYIogpzdVjvEP9sF2Z6MGjhMoOtbB8RJ9ZzLsgkTFJl87G+ayizEPVBChKRdnjt4eAyVvjzIZE1Vrr5kHc04L34KLtoLkRO1v+34ZU2nL3u0C5Sp+P9vsd2ognUr05KiZBpnWATzm/oLLDZ1Iyew8aMigGXWI3jYjcJA9IyJOqbZe9wFUVILhfdGMDZw/jNl0rQDaMjN/rwWOYBNrd9j0yyDIRjP64QwHlQzfV/ajHVyo2LkTYLP0sUgWvfv/zJU4xYkaeBpufipX+H5pvtWV2hkplDZ4slwTgMml+eEQOwkSHNkPT40ZaVEVMOxWaR/LdR3Q/LJmgezvhZo9ksxScGM+3HSAJg4pjt6o2jOptozARWe/BFQqojbQf7sgusoiJCBU09ih1TscQiqfi5tyAW8y1W3VpklTXQFAdVu1te6JGuArBxLrodXxZFNnOd2hkhkIM91O2Q07HgNqHaCFtetM9WkBBK9jtcxcKlAqFk8lVacJ0dsvG/VYwXkmoWfn9VV9rQOaj0BfIehqNk+tq/hD+4bzzRUCKoTpKsnOXsDtlbsfMXn0xtZ1IHh7JC/1oujOM9dw3Z79ta9CvSLib32dEloLeYzoxVqAB8p+havkQvNO8o0C0ZgQYL5PLSSUIICOQ9sGk+4ERdYisNuFFbLon7+a/AVAf1w/0jwdXl4u33iW//cfdfTR5YMQ3/8C);lineShape=1;strokeColor=#E6D0DE;" vertex="1" parent="1">
          <mxGeometry x="518.4638775401306" y="228.01173751917327" width="30.11441165636552" height="32.73876842325899" as="geometry" />
        </mxCell>
        <mxCell id="j-bRBase9HprXpClxs5v-55" value="" style="shape=stencil(rVfbbtswDP2avBKSqBufu+4/CjRdgmVNkWa3vx89V45F2ycYsDdH4ZF0yMOLdvzwfnh62++Ce79ezl/3P4/P18OOP+1COL4e9pfjVb92/Ljjh5fzZf/lcv7++jz+fnsaLIevb+cfww6/RpyvFPyACu73uMLk0t+Fz6P96fg6t2dKsbMv5AKw9+RqZ+8DZQRwbb8GCJ48BmTDYDpzi0KUDhADBQaASrUHJOykkKj0pDOTBwBmyrn3qicBpKOn0Hup6CXBCbHYK9VIwW0DlGJJPaBQLtsApRh7ZYinlLcBRU/oOYi6AVypapj6OEigAgJXmcT1HIQykIb65IPiBKiU0Qm5OXHmpRIBoBJHC/B+GyCOqgHkFsp1gMYhW0AFWpLUpDa7EpKGFJJsAR8Zsg4Q4oVbKyDtnVaBReQqYi1W3+o4AXKV2uI0k6ugEzLJUn2IdaTSFyYNDQMx6X6eLSAhMQmlBYDBlQatLTgISrlk5TpcEohJM8hX61aPODBVw8HB4qoncA9QMaFIK4ccLAD1LPVSMnItrfJsxUFMcc2wGqsTs7OAgtSamhNnV3JIS2WlzqBKpvlgOVSKOOOqAagcUSVTL/UdRabW/X8ASjGajBMKqAVlcn0lm1We9S5XLGt1XEV9VFqRmAAaanCn5BZ9VHMUsI7JzgI3Pa5PGxonA0iwCuh4wgbgWkXfGoBMD9JmH9AQpwnWk85TIdkcE/sqoANLBXVGp50+p3XoQ+OMt2Moe8hg0bB0RUAJUCX32tZJGVWASK53UCRB6Uypv47yQWydbQwOe0e3s/YMvK9Dv8/GHk09fqE4nJY+WkmrPdo/2UHPtd67bp/trIoTQPVsHiWuDQNbTwwjzzuPntrm2Jt9Ah3KT/PWJM8WwM39k7G/s/+/PSPv2uvH7c36cjydxifv/H/7xtWl8X3Mj38A);lineShape=1;strokeColor=#E6D0DE;" vertex="1" parent="1">
          <mxGeometry x="537.1068092533596" y="188.14429153337687" width="29.546819136173553" height="70.57096004240407" as="geometry" />
        </mxCell>
        <mxCell id="j-bRBase9HprXpClxs5v-56" value="" style="shape=stencil(lVbZctswDPwavWJAggf4nKT/kZk4taaunXHcHH9fqBo5Bm3tNG+yjBVx7C4xyN3r9vFlM0R+PR0Pvzbv49NpO8j9EOO4326O48meBnkY5O75cNz8PB7+7J/m3y+PU+T09PvwNn3hY8ZpphYmVOTP+U0rlOq/Nz9mwG7cXwCqUGIHqPaJuA4oiYo/oUR4Qg4UxQFSo5jWAaLUOoCdWdYBsVJuHpBhSjFQKr4GppIhQHxKRfEJTNz6tlZdB4RKqg6ggVQAIC1jOgNscOiEQNnXoJVqWwcocenjGdScSKuPF2oMekTSMU8Xat2MtxH5gmugCmhhI/DfN+oyjM+e2LmQACXEfsTGawEkSpT9hJMsHbstTaq+3sSQczbg4A+QRgkM2CjU6yYQgwqMpJ32TZkNpdR6O8pMioUWswcoJJ0BcjflvChpTZk9jcwCUdFK1degZ2bdBuSlJ2eASQMYXohU/BxMaQkw1fyT+/gMBp2vvCVTBEqTpeUXFWdkLX18TRTA0Kx/Pp9SqHw3HuUjV+67XCm3OVEo+wLwhE0m4llq0kP9VwpdPJMARlj/1JNULCNQgVmteLM2ZQYAsLWg41AR6L7NLijuh6CIpI3Y66Yy9DsDVF+D3ZkJpBT4yuKNqBFY9nTE1aXJCGC7SPKARhlMztpUfUpNFodaG0QnnobF0FJPJksSOV6Li6l/sQ/z22pUrx9rXAOzNv/R0OdUgalOuwr3VSPL+4/F1h6+1uLncbebt+rL//s12l7NK7g8/AU=);lineShape=1;strokeColor=#E6D0DE;" vertex="1" parent="1">
          <mxGeometry x="538.0866761678765" y="228.8633151840047" width="24.505655472858052" height="10.915456786951381" as="geometry" />
        </mxCell>
        <mxCell id="j-bRBase9HprXpClxs5v-57" value="" style="shape=stencil(7VnLThwxEPyavbZst59nQv4DCQirEEAb8vr79GTjYV2erRAplyi5LUOXp5/V3Z6dXny8u3q62QX38fnw+P7my/76+W6nb3Yh7B/ubg77Z/u108udXtw+Hm7eHR4/PVwf/366WiSXXx8ePy8nfD3igpdaF1Rw345PvEqJP568PQLu9w8nAHWiZQIEAmhSEgJ+HrEJiFmyHwGuP9kGVAkjIFETYkGbo3higZ3vR5NVvKPytQ3yQTzRJzlxYLAosTd5iaNHzT+ZyJu6CvKBnR+l4fmO2Juy1IDyzN6KAbacIv7Ppi7qX5XIe0mQ05ISkQ8oHyQyfXTOh0j8Y/I66h8lMv0DllgT36i9EC8fpZIKsxc0Nxqs3cXbgCRpzGg1m0iIi+seWU1ONIdKRp+m1JXcBFQvZQSYkpFEuWZpow3Fwka81DzaUBo1uqVe5h1QVRopTO/Wwloj7cQTRGud2VZAotxYrdbG3GiVWm1+BTI1QK4kch6TyQCsIVj25YAAFuqFvwDQOqNtE3CU4BDAKk7zZLQ5mhgdTOOKgEZq1JdekS9NjbOqNb0EOhWaTbFrvMortcHOH51U+flTrlpFVWKA66S1yqce+G2DxY2ZWqMkUm5G0nC+0jYYRTPKO0arvU5W+dDnhu3KwS6ynE8IyQI8G5DIC7xHBqu8kXjj+YAhiCxLdYqZDWOELewNwMKWRKw3mw0FssimJcqRfdZaAU0ySYuKw05zdFpL6NTmaLfVyaetj3tn0hT0MflA9LfZxqOD2DToehKfRCDQssQyy338PCOPAYu0DHwnkdMmyLhXikd55p+E60QNtHsUHMYXeVKWbZLn64pldIroILZOWM1kIIr0hwFTO1tqhvjIgqDQO7iTNCGZLgC2c9msNb2BjRUpYHsygDK6Djh9GYDxe5kmSJv4GBVVh3uOAQp5gzGJK5NKjLty72AnkaY9R6ce4rnRNsKO5VNsMCdG25CcYc7OdNLJReJoQ7InhGDyxHgxdyXP7ad1pFSN/Z3nFmxYX5aNn23wRdL4Btuo6OyVcQi2Kfv/FcQwwv9rVxAw7v9dVxCKu6+1FBLfhXwhf4yHGL1PLOGN6VjFNKxh32g/iA73oZdR5pU3m78AzHenSxWwUdBhmw0rM2038orD1FI3fM0sAb1U+agwA9j46/PEFJXeu1hc4QbClMxsRZgBmbbZDZVSX89fa3SiM+eGWyO9dpkDZwB2ZTGnhu1irB5+++L+FQD78fKd4HZ/f3/8zHD6f/yuYI+O3yT08js=);lineShape=1;strokeColor=#E6D0DE;" vertex="1" parent="1">
          <mxGeometry x="555.0965324280778" y="214.66946633875546" width="35.210694996947495" height="63.497751950194015" as="geometry" />
        </mxCell>
        <mxCell id="j-bRBase9HprXpClxs5v-58" value="" style="shape=stencil(lVbLctswDPwaXTEg+AB5TtP/yEycWlPXzjhO2/x9oFHlCrS1nd4oEiu8FksO8eFt//S6G4TfLufT992v8fmyH+KXQWQ87nfn8WKrIT4O8eHldN59O5/ej8/z9+vTZDmtfpx+Tn/4PeMqxTqBhD/mjZBJ5p2vs/1hPK7shSmzAxTSvG0fhaI6e6EA/p8i1ezsmZi37UuiEp19opq27Wta0rsmXKgUAFCqHSBSjtuAFij7DEKiJgBgx8GXiElBzk2peEBkEtCE1vomJKGs24DA16oviFwWpmy5SL4PajGhrJXUA6rARrRM7JNogkMKpMkD6lKH+62uvYdVHbbYlIp3oRQQIPT0q40aSEIrVR+TNpi1KiUPKIVSgADxZcqy9HIrJPHciBZkA0lz70HMJ/BQIwVf1lDxkNoM38wcg1Y3puhDsqluiH03umQhRcTvQrWbalNK0AcjZycDVlYBUmYj90dWro0LWDfaItVXamQMqJS8B+u9oioVYu/B6J1R0kLNc2mqG0pa+ipNAMClEqh0E2fKAxqXEuXmAbzs3L8SjWo+JONvBjmE0HPJpIqRfi8DvLLPIAUllr4LCqbBrkzfhJrhQMtyuqoQUr1Ayf9fBdKIe9rZLS8g/tvLKlMAnLBou+sQ58v9oEWrMIhfeoG0DgYQv0lPp4+ykPY+p4k78VIoXv/7yPu3vS3+vihfxsNhfpCuz/sXqG3Nr9f4+Ak=);lineShape=1;strokeColor=#E6D0DE;" vertex="1" parent="1">
          <mxGeometry x="580.5958745526416" y="230.54861853495845" width="21.786017350065322" height="5.739765268109295" as="geometry" />
        </mxCell>
        <mxCell id="j-bRBase9HprXpClxs5v-59" value="" style="shape=stencil(lVjZctswDPwav2JI8AKf0/Q/MhOn9tS1M47T4+8LVkNVhKxt86ZYWgILLA5mFx7eDk+v+x27t9v18nX/4/h8O+zCpx3z8XzYX483fdqFx114eLlc91+ul/fz8/T361P7sj19u3xvJ/yccCFSCQ3F7tf0i48U+c8vnyfA6XheADhTMIBArmwDfCEn1kICFvS15wHAnooAQCDxA0BZ1QoAidgNgPgPDkJudCl5cglEiSmUEVApAwtcSEaXcqEKSCtFN1ookQIAREd1TFxRlxBAKOUBIIGC2wakbC1IIsnbgJzIjYmTQgykUTLlbC0Evw0QpsyWtAAOsuJQXM/9fYCmaeTQEgdIS6U4cshzSd0FVE/RWFDSwKUabOJaoJGF1IWwACQQpVooJcshA9JVuphngFBEFjRNbPOQIgRUUw9MAkpUAdFkOpFHLglxHAHa2pBLuXs8A5Q0aAI19qgv1MqIA9tm3ACg81VHXKxLCTQBkd6rF6QZVZy+FhtWWKKrmi7ajAEHBZRRfCqNAsKqLiVTQEIZNQEhqVbeAjhoWM0UbQUEwqqJkxUADZQ6T7QFgFHFZVsPyoGxvJMBFBhWLaBswop7q3faSo2+uS8HmyaMmGIfrJuA+iEAd63NE0X7AkiEqi+OYWqpARbawBnl2hoJCFOLydg2FoG7P0eDJdHaJxBHCpRXPnkwUnQ/yqNedWagsRh0JzNhcrBvcOr70WLbEDC0dK8sJtUJr4m+99Ll4AWZ0+NGteqC45FHVMfzY4IF5HrFz2urDiAwT1bVw7iiHYlZvAXnrC/+c8qgsMXOz0AVnK7uGM1hUev5PpvvUfRD7h13ptuXlPvfF9tRPV64qx2d3OfQ1r4dbHyQnqPv9Ga5kUfn+z7DZjn3Gt363swoDTAYs/q9mZqVClBnu1+M+dWCgwbc6mLIfTW+nwFZWQgYUGzXandLwCFkezFst2FQAx++Pv8HQB/+3tZfjqfTdNlfvre3e/1p+s9AePwN);lineShape=1;strokeColor=#E6D0DE;" vertex="1" parent="1">
          <mxGeometry x="576.5192103812533" y="218.94705439982317" width="35.5650062997438" height="33.22006202566013" as="geometry" />
        </mxCell>
        <mxCell id="j-bRBase9HprXpClxs5v-60" value="" style="shape=stencil(7VnLUhsxEPwaX6ckjZ7nhPwHVTjBFQIpIK+/z2xcWqze3Ta+JUVuxp5G0jx6eqSdvnu6vf663wX39Pz48Hn/43DzfLvT97sQDve3+8fDs33a6dVO3318eNx/enz4dn9z/Pvr9WQ5ffry8H36Dz+POB8kxwkV3K/jN1ok1D/ffDgC7g73pwAnMQyAGMXHbUCT1kb7Ru29l5oHQCriPAFkcSMgB/FhGxC8RAAkqYkAqlQdAUUi2ZImSRVXYIfWKs2Nh279VOuAtvBSkKYU4McVogWarZDFQ+ACPYNFWv2YSkkac2uRMnpJnTQWuCxhTFYLZWIrJInjCpYskXgpaP+5A5oUZh/6hrt9EeX2GcImjQTB7AsEoWfW1v51jLJKKMTeajeNHu1psuVQiLHnOZElj/s3+mD2VYKCPSsDC09d2JP9q5W+A3vGdho6MbzYV+JPjeIa+Kewuk/i0P+Micw+jwkdKdVZ1SeIl6dkGlU8AGYCXwdkadBAXI/5KiCZR4CIuI8m+h9jnAKlibwoGvsmkahl41qoYtf9vAooxuZlBBiZErdWS/txS9XaHDl0rd0nM4AzS1NJ4wrNUpt4qRVMjWZeIrXTKnJL4+RiAOhRLfaesg5oyEYtXQrI/NC1l+8MKJ1xNg8NXqpc7phbAwJYttqO0xjpNhftOiChAjMAIyXzOrRN7zhNWmCBlqYlSEE038XHaw/hujQ4dRMLhEOFZGtmcmqrIKDiYpEjvaQqFkSeu90WAAoim6eJW1dWUNpu68zup9KWbSkttLAXZTyTseFm3uHqIr8NUEjLmpisIYB1lNow0nYGRt+WGkXRS5GVnO9kfRKHSFJjAoCe5zpsylbYUurKbwuAW8qd0Le85GFLXM9b4KDiDJCJlyw18mWAhOL53JYiqrHp0MStVkC5XOLWqUQhW3ngDIBb4qlhgApx4Mlnhy4QaZ7e5ta6qDhaQAWZ73yJakUAJYHWx65X0kxb6J8zRGYV5xdxYFR5OSBjHAqfDU+a5qzJctey/yXWPyexWBzepMQyoikAiH24Wx+DGrZ2W5ONozY3wSj3oj+2JrMyBqJy7rOi1/EMJXZHr0+XecF9iTbe2PrgNo+jiQ68NlID0cTYL13Xh/aCblXtrXjrlgKGxaC9Z2zdvEFq+ETH0bd4zzX+///3XH/1PVdeDEpS2P7r4l4s8iJ2kkeHnslQq/oMt+GeHjlaGxxLxg7FulqyEEHNeLql6doMbt4qZd+XJ4W5ipU2hORRDKeZwLfINEPcEqW6mFB5ljnVt8g0AiDTUghLXVi6fFjXhVXceGhrc2xk8G5Bpo6yY1yMekozw2MftygwtnY4t6XY6W/D3i3yiP9/6JiWqPRhCBWkzrphPcZ99dk+Uja1X+HKWum9jakg2E/oCnRdhCDZmT3TIAXF40QV7JYH3y8ne6awF2+8vPtZgkIJGCCzJ1iP7Kjz4L0OCHihovzqbHqnBk3E5xYDVDjD/Hq4ucJlL+HnAfbh5eH94+Hu7vhuf/o7PtTbV8dHfr36DQ==);lineShape=1;strokeColor=#E6D0DE;" vertex="1" parent="1">
          <mxGeometry x="605.8425621522729" y="204.2926591769599" width="43.28289813833726" height="50.07757899858416" as="geometry" />
        </mxCell>
        <mxCell id="j-bRBase9HprXpClxs5v-61" value="" style="shape=stencil(rVbRbtswDPwavxKSKFHUc9f9R4Gmi7EsKdJsa/9+9Ax7kTTfEmBvinOkyOOR1MAPb/un190Q3NvlfPq6+zk+X/YDfxpCGI/73Xm82Gngx4EfXk7n3Zfz6fvxef79+jQhp9O304/Jw/tsp6RhMgruY/4QKMbfHz7P8MN4vIKHTNlX+EQ+b+NjItEKL5R0G5+Usjb+g9vGZ3OXK7wnBvEUR1LjHTngvzCJNPxIAHgh5joeBxMoStHVF3gqoAKltBmwkPC2gXdriiunYani1hWc6qIpJWRgqiiVgQZchkSxNiiBFGUdWh0ZcQqy1tIWzrJCSatQrpO2IBlIVSOF2sBcMCi1cRLrXstMEYXkKdY3WHs4FFJnEE1Md4UU1oa6MWlvHVLuoTXCBurrZv0D/PfC8HAg9crL5OUeaftMgvuzaR72lEAN/tKfMRPj/mxGgDAxIqkbMtmEhFgyJde6sLooCslU0HRPxiF1g/iKh/9k0S8HIwKNyn77lEgKbujXmxERgbz7/TndgOZYu5+N1wT0Kks3rnghD0ZG7PCBPCh0oFLvNzUKkLqXxbEqL5MDBLkWL0IK8u13W6IM+Ox7zSYa9N/Ew0webdsWPzEG+O/49HHp1dvqlUmBe5u+dbq86Ok2teHX4D/hdvjz8HwZD4f53Xr9f/tQtU/zI5cffwE=);lineShape=1;strokeColor=#E6D0DE;" vertex="1" parent="1">
          <mxGeometry x="616.7592562312598" y="213.03889605134646" width="23.135810306648636" height="4.322293346525839" as="geometry" />
        </mxCell>
        <mxCell id="j-bRBase9HprXpClxs5v-62" value="" style="shape=stencil(fZbdcgIhDIWfZm8zQAg/17Z9j85U606tdqz9e/tmZ0c0uJ47xP0I5JwEBl59bp8/1kNwn6fj4W39M76ctgM/DCGM++36OJ50NPDjwKvN4bh+PR6+9i/z74/n6ctp9H74nlb4nbmSKZeJCu5vngmZ6jzzNAO7cX8FVKEsBuBKrgKg9oAE8gkCbLeUhEoEQKSUDZDLeWYRKIl8MEDRmHwfyBrBG6Amyu4+kDxxMoB3jhwgYu7TVAsVkFcWCs4CTBEoF4RctKeOxHIf8IXYpikHikAIf+MNUW94AGSSaoAoFIE3AlOyeWU+p2E5S9yfQZcQILVuQOwZdJNoS9Ls3wA5u2XZTIHECqeJ9kDpSaauRiNVcAY1QhdBzeLBli5WazpkSsBLV25uRaqWRyFawTQzRRIQYirJzq5atkBqLfouwqUxLBepthWb10vrWZY6UOAeyKCCtDV625mm9gmUC4Wc3VLJMMIE1BsA2FW9JraVlQB7n3c9oMKhCLEvIM1zBPZ25/umNQ1tVEC2G+fFCC8g398O2hNQuQlVu752DBfA+q0ptnqO5JFmeuIuo9DY7KjY71UxdJV4EntifPWorW++R/dC4t7V3DlIB5cHx2bc7eb3yvX//QNFp+bHDT/+Aw==);lineShape=1;strokeColor=#E6D0DE;" vertex="1" parent="1">
          <mxGeometry x="644.6680096706009" y="215.4753490796129" width="4.672539772115215" height="4.665236216357698" as="geometry" />
        </mxCell>
        <mxCell id="j-bRBase9HprXpClxs5v-63" value="" style="shape=stencil(lVbLctswDPwaXTEk+ABxTtP/yEyc2lPXzjhum/x94WqkiJC8095kepcEgQWWQ3p42z+97gYOb9fL+fvu9+H5uh/Sl4H5cNrvLoerfQ3pcUgPL+fL7tvl/PP0PP5+fbohb18/zr9uO7yPvBgChXCjcfgYlyoF+bvwdSQcD6cFQZUkd/golBChEEtHYCXO9wmtUOOOkJkUnFCVgnaEovAOuVIpHUGESr1P4OiTpEKZ7xNio9qHpI0EEQrV2BN0WtkmMIXW1+GzlNt5pVz8Ca3cxxeK7PGxgSRRTv7KAewfqNYeb2VRhPc1yKRAR4GKiz8Rw/ijiyeSAHwmcfkMsGKWjT6eZvkH+8dINXlCBSo1DXHwBAUZNZWm6q/QgEotp9L3ss4y3CbwJJlFESo6gVcqtVuBO1hrln4emYwUdZpOrb7QaUKESrJqzYTqMOtsQdAERiTVvMKDAypF8fgM8BbPqjMzmI+RosMLRTBZgp+/VrMC8bzqTCS7OO22UB2DyRIp6wqPxruF2ydUmBJq/ULSR1Qy9DQzpNRLIs2mtV1iIe37wKouIKcye+TsB9YHiJAnzcx3oAqSKvO0nW0ZFkFMpT2e4bg2C1ZnaNTQOA2U+gwFeN+WvKoDHCzN4vf7Q3tVr+oA7c80GdXhM8iPuV2rLj8R4cV3JU+Gvo1v3s8SHIvrh2DG7vS/L81/INjH58P25XA8ju/i5f/+IWxL4yM6Pf4B);lineShape=1;strokeColor=#E6D0DE;" vertex="1" parent="1">
          <mxGeometry x="648.9327464243206" y="233.52658970635298" width="13.145706788699954" height="28.5548480279906" as="geometry" />
        </mxCell>
      </root>
    </mxGraphModel>
  </diagram>
</mxfile>
